G04 #@! TF.GenerationSoftware,KiCad,Pcbnew,(5.1.4-0-10_14)*
G04 #@! TF.CreationDate,2020-05-31T22:22:30+02:00*
G04 #@! TF.ProjectId,maskmeter,6d61736b-6d65-4746-9572-2e6b69636164,rev?*
G04 #@! TF.SameCoordinates,Original*
G04 #@! TF.FileFunction,Legend,Top*
G04 #@! TF.FilePolarity,Positive*
%FSLAX46Y46*%
G04 Gerber Fmt 4.6, Leading zero omitted, Abs format (unit mm)*
G04 Created by KiCad (PCBNEW (5.1.4-0-10_14)) date 2020-05-31 22:22:30*
%MOMM*%
%LPD*%
G04 APERTURE LIST*
%ADD10C,0.120000*%
%ADD11C,0.150000*%
G04 APERTURE END LIST*
D10*
X124000000Y-78600000D02*
X124000000Y-76600000D01*
X125000000Y-77600000D02*
X123000000Y-77600000D01*
X138350000Y-101950000D02*
X133850000Y-101950000D01*
X138350000Y-79250000D02*
X133850000Y-79250000D01*
X138350000Y-79250000D02*
X138350000Y-101950000D01*
X133850000Y-105150000D02*
X132300000Y-105150000D01*
X133850000Y-101950000D02*
X133850000Y-105150000D01*
X133850000Y-76050000D02*
X132300000Y-76050000D01*
X133850000Y-79250000D02*
X133850000Y-76050000D01*
X126150000Y-76050000D02*
X127700000Y-76050000D01*
X126150000Y-79250000D02*
X126150000Y-76050000D01*
X121650000Y-81050000D02*
X123450000Y-79250000D01*
X123450000Y-79250000D02*
X126150000Y-79250000D01*
X121650000Y-101950000D02*
X121650000Y-81050000D01*
X121650000Y-101950000D02*
X126150000Y-101950000D01*
X126150000Y-105150000D02*
X127700000Y-105150000D01*
X126150000Y-101950000D02*
X126150000Y-105150000D01*
X107390000Y-99040000D02*
X107390000Y-96390000D01*
X107390000Y-96390000D02*
X116610000Y-96390000D01*
X116610000Y-96390000D02*
X116610000Y-99040000D01*
X116610000Y-102960000D02*
X116610000Y-105610000D01*
X116610000Y-105610000D02*
X107390000Y-105610000D01*
X107390000Y-105610000D02*
X107390000Y-102960000D01*
X107390000Y-99040000D02*
X107060000Y-99040000D01*
X115750000Y-88750000D02*
X115750000Y-91250000D01*
X114000000Y-87250000D02*
X112000000Y-87250000D01*
X110250000Y-88750000D02*
X110250000Y-91250000D01*
X114000000Y-92750000D02*
X112000000Y-92750000D01*
X115300000Y-88300000D02*
X115750000Y-88750000D01*
X115300000Y-91700000D02*
X115750000Y-91250000D01*
X110700000Y-91700000D02*
X110250000Y-91250000D01*
X110700000Y-88300000D02*
X110250000Y-88750000D01*
X109037221Y-82010000D02*
X109362779Y-82010000D01*
X109037221Y-80990000D02*
X109362779Y-80990000D01*
X103490000Y-97450279D02*
X103490000Y-97124721D01*
X104510000Y-97450279D02*
X104510000Y-97124721D01*
X104610000Y-83162779D02*
X104610000Y-82837221D01*
X103590000Y-83162779D02*
X103590000Y-82837221D01*
X103090000Y-91152500D02*
X103090000Y-94037500D01*
X104910000Y-91152500D02*
X103090000Y-91152500D01*
X104910000Y-94037500D02*
X104910000Y-91152500D01*
X103090000Y-85152500D02*
X103090000Y-88037500D01*
X104910000Y-85152500D02*
X103090000Y-85152500D01*
X104910000Y-88037500D02*
X104910000Y-85152500D01*
X115537221Y-80410000D02*
X115862779Y-80410000D01*
X115537221Y-79390000D02*
X115862779Y-79390000D01*
X115862779Y-77590000D02*
X115537221Y-77590000D01*
X115862779Y-78610000D02*
X115537221Y-78610000D01*
X109100000Y-75040000D02*
X105650000Y-75040000D01*
X109100000Y-75040000D02*
X111050000Y-75040000D01*
X109100000Y-80160000D02*
X107150000Y-80160000D01*
X109100000Y-80160000D02*
X111050000Y-80160000D01*
D11*
X135228571Y-77260714D02*
X135276190Y-77117857D01*
X135323809Y-77070238D01*
X135419047Y-77022619D01*
X135561904Y-77022619D01*
X135657142Y-77070238D01*
X135704761Y-77117857D01*
X135752380Y-77213095D01*
X135752380Y-77594047D01*
X134752380Y-77594047D01*
X134752380Y-77260714D01*
X134800000Y-77165476D01*
X134847619Y-77117857D01*
X134942857Y-77070238D01*
X135038095Y-77070238D01*
X135133333Y-77117857D01*
X135180952Y-77165476D01*
X135228571Y-77260714D01*
X135228571Y-77594047D01*
X134752380Y-76736904D02*
X134752380Y-76165476D01*
X135752380Y-76451190D02*
X134752380Y-76451190D01*
X135752380Y-75308333D02*
X135752380Y-75879761D01*
X135752380Y-75594047D02*
X134752380Y-75594047D01*
X134895238Y-75689285D01*
X134990476Y-75784523D01*
X135038095Y-75879761D01*
X111119047Y-95428571D02*
X111261904Y-95476190D01*
X111309523Y-95523809D01*
X111357142Y-95619047D01*
X111357142Y-95761904D01*
X111309523Y-95857142D01*
X111261904Y-95904761D01*
X111166666Y-95952380D01*
X110785714Y-95952380D01*
X110785714Y-94952380D01*
X111119047Y-94952380D01*
X111214285Y-95000000D01*
X111261904Y-95047619D01*
X111309523Y-95142857D01*
X111309523Y-95238095D01*
X111261904Y-95333333D01*
X111214285Y-95380952D01*
X111119047Y-95428571D01*
X110785714Y-95428571D01*
X111690476Y-94952380D02*
X112357142Y-94952380D01*
X111690476Y-95952380D01*
X112357142Y-95952380D01*
X113261904Y-95952380D02*
X112690476Y-95952380D01*
X112976190Y-95952380D02*
X112976190Y-94952380D01*
X112880952Y-95095238D01*
X112785714Y-95190476D01*
X112690476Y-95238095D01*
X117154761Y-91333333D02*
X117202380Y-91190476D01*
X117202380Y-90952380D01*
X117154761Y-90857142D01*
X117107142Y-90809523D01*
X117011904Y-90761904D01*
X116916666Y-90761904D01*
X116821428Y-90809523D01*
X116773809Y-90857142D01*
X116726190Y-90952380D01*
X116678571Y-91142857D01*
X116630952Y-91238095D01*
X116583333Y-91285714D01*
X116488095Y-91333333D01*
X116392857Y-91333333D01*
X116297619Y-91285714D01*
X116250000Y-91238095D01*
X116202380Y-91142857D01*
X116202380Y-90904761D01*
X116250000Y-90761904D01*
X116202380Y-90428571D02*
X117202380Y-90190476D01*
X116488095Y-90000000D01*
X117202380Y-89809523D01*
X116202380Y-89571428D01*
X117202380Y-88666666D02*
X117202380Y-89238095D01*
X117202380Y-88952380D02*
X116202380Y-88952380D01*
X116345238Y-89047619D01*
X116440476Y-89142857D01*
X116488095Y-89238095D01*
X109133333Y-83552380D02*
X108800000Y-83076190D01*
X108561904Y-83552380D02*
X108561904Y-82552380D01*
X108942857Y-82552380D01*
X109038095Y-82600000D01*
X109085714Y-82647619D01*
X109133333Y-82742857D01*
X109133333Y-82885714D01*
X109085714Y-82980952D01*
X109038095Y-83028571D01*
X108942857Y-83076190D01*
X108561904Y-83076190D01*
X109466666Y-82552380D02*
X110085714Y-82552380D01*
X109752380Y-82933333D01*
X109895238Y-82933333D01*
X109990476Y-82980952D01*
X110038095Y-83028571D01*
X110085714Y-83123809D01*
X110085714Y-83361904D01*
X110038095Y-83457142D01*
X109990476Y-83504761D01*
X109895238Y-83552380D01*
X109609523Y-83552380D01*
X109514285Y-83504761D01*
X109466666Y-83457142D01*
X106052380Y-97266666D02*
X105576190Y-97600000D01*
X106052380Y-97838095D02*
X105052380Y-97838095D01*
X105052380Y-97457142D01*
X105100000Y-97361904D01*
X105147619Y-97314285D01*
X105242857Y-97266666D01*
X105385714Y-97266666D01*
X105480952Y-97314285D01*
X105528571Y-97361904D01*
X105576190Y-97457142D01*
X105576190Y-97838095D01*
X105147619Y-96885714D02*
X105100000Y-96838095D01*
X105052380Y-96742857D01*
X105052380Y-96504761D01*
X105100000Y-96409523D01*
X105147619Y-96361904D01*
X105242857Y-96314285D01*
X105338095Y-96314285D01*
X105480952Y-96361904D01*
X106052380Y-96933333D01*
X106052380Y-96314285D01*
X106052380Y-83166666D02*
X105576190Y-83500000D01*
X106052380Y-83738095D02*
X105052380Y-83738095D01*
X105052380Y-83357142D01*
X105100000Y-83261904D01*
X105147619Y-83214285D01*
X105242857Y-83166666D01*
X105385714Y-83166666D01*
X105480952Y-83214285D01*
X105528571Y-83261904D01*
X105576190Y-83357142D01*
X105576190Y-83738095D01*
X106052380Y-82214285D02*
X106052380Y-82785714D01*
X106052380Y-82500000D02*
X105052380Y-82500000D01*
X105195238Y-82595238D01*
X105290476Y-82690476D01*
X105338095Y-82785714D01*
X106152380Y-94138095D02*
X105152380Y-94138095D01*
X105152380Y-93900000D01*
X105200000Y-93757142D01*
X105295238Y-93661904D01*
X105390476Y-93614285D01*
X105580952Y-93566666D01*
X105723809Y-93566666D01*
X105914285Y-93614285D01*
X106009523Y-93661904D01*
X106104761Y-93757142D01*
X106152380Y-93900000D01*
X106152380Y-94138095D01*
X105247619Y-93185714D02*
X105200000Y-93138095D01*
X105152380Y-93042857D01*
X105152380Y-92804761D01*
X105200000Y-92709523D01*
X105247619Y-92661904D01*
X105342857Y-92614285D01*
X105438095Y-92614285D01*
X105580952Y-92661904D01*
X106152380Y-93233333D01*
X106152380Y-92614285D01*
X106152380Y-87338095D02*
X105152380Y-87338095D01*
X105152380Y-87100000D01*
X105200000Y-86957142D01*
X105295238Y-86861904D01*
X105390476Y-86814285D01*
X105580952Y-86766666D01*
X105723809Y-86766666D01*
X105914285Y-86814285D01*
X106009523Y-86861904D01*
X106104761Y-86957142D01*
X106152380Y-87100000D01*
X106152380Y-87338095D01*
X106152380Y-85814285D02*
X106152380Y-86385714D01*
X106152380Y-86100000D02*
X105152380Y-86100000D01*
X105295238Y-86195238D01*
X105390476Y-86290476D01*
X105438095Y-86385714D01*
X118033333Y-80257142D02*
X117985714Y-80304761D01*
X117842857Y-80352380D01*
X117747619Y-80352380D01*
X117604761Y-80304761D01*
X117509523Y-80209523D01*
X117461904Y-80114285D01*
X117414285Y-79923809D01*
X117414285Y-79780952D01*
X117461904Y-79590476D01*
X117509523Y-79495238D01*
X117604761Y-79400000D01*
X117747619Y-79352380D01*
X117842857Y-79352380D01*
X117985714Y-79400000D01*
X118033333Y-79447619D01*
X118414285Y-79447619D02*
X118461904Y-79400000D01*
X118557142Y-79352380D01*
X118795238Y-79352380D01*
X118890476Y-79400000D01*
X118938095Y-79447619D01*
X118985714Y-79542857D01*
X118985714Y-79638095D01*
X118938095Y-79780952D01*
X118366666Y-80352380D01*
X118985714Y-80352380D01*
X118133333Y-78357142D02*
X118085714Y-78404761D01*
X117942857Y-78452380D01*
X117847619Y-78452380D01*
X117704761Y-78404761D01*
X117609523Y-78309523D01*
X117561904Y-78214285D01*
X117514285Y-78023809D01*
X117514285Y-77880952D01*
X117561904Y-77690476D01*
X117609523Y-77595238D01*
X117704761Y-77500000D01*
X117847619Y-77452380D01*
X117942857Y-77452380D01*
X118085714Y-77500000D01*
X118133333Y-77547619D01*
X119085714Y-78452380D02*
X118514285Y-78452380D01*
X118800000Y-78452380D02*
X118800000Y-77452380D01*
X118704761Y-77595238D01*
X118609523Y-77690476D01*
X118514285Y-77738095D01*
X108338095Y-73652380D02*
X108338095Y-74461904D01*
X108385714Y-74557142D01*
X108433333Y-74604761D01*
X108528571Y-74652380D01*
X108719047Y-74652380D01*
X108814285Y-74604761D01*
X108861904Y-74557142D01*
X108909523Y-74461904D01*
X108909523Y-73652380D01*
X109909523Y-74652380D02*
X109338095Y-74652380D01*
X109623809Y-74652380D02*
X109623809Y-73652380D01*
X109528571Y-73795238D01*
X109433333Y-73890476D01*
X109338095Y-73938095D01*
M02*
