G04 #@! TF.GenerationSoftware,KiCad,Pcbnew,(5.1.4-0-10_14)*
G04 #@! TF.CreationDate,2020-05-31T22:22:30+02:00*
G04 #@! TF.ProjectId,maskmeter,6d61736b-6d65-4746-9572-2e6b69636164,rev?*
G04 #@! TF.SameCoordinates,Original*
G04 #@! TF.FileFunction,Copper,L2,Bot*
G04 #@! TF.FilePolarity,Positive*
%FSLAX46Y46*%
G04 Gerber Fmt 4.6, Leading zero omitted, Abs format (unit mm)*
G04 Created by KiCad (PCBNEW (5.1.4-0-10_14)) date 2020-05-31 22:22:30*
%MOMM*%
%LPD*%
G04 APERTURE LIST*
%ADD10C,0.100000*%
%ADD11R,1.500000X1.500000*%
%ADD12C,0.800000*%
%ADD13C,0.250000*%
G04 APERTURE END LIST*
D10*
G36*
X121200000Y-96800000D02*
G01*
X119200000Y-96800000D01*
X119200000Y-85300000D01*
X117700000Y-85300000D01*
X117700000Y-96800000D01*
X115200000Y-96800000D01*
X115200000Y-85300000D01*
X113700000Y-85300000D01*
X113700000Y-96800000D01*
X111200000Y-96800000D01*
X111200000Y-85300000D01*
X109700000Y-85300000D01*
X109700000Y-96800000D01*
X107200000Y-96800000D01*
X107200000Y-85300000D01*
X105700000Y-85300000D01*
X105700000Y-96800000D01*
X105700000Y-98300000D01*
X121200000Y-98300000D01*
X121200000Y-96800000D01*
G37*
X121200000Y-96800000D02*
X119200000Y-96800000D01*
X119200000Y-85300000D01*
X117700000Y-85300000D01*
X117700000Y-96800000D01*
X115200000Y-96800000D01*
X115200000Y-85300000D01*
X113700000Y-85300000D01*
X113700000Y-96800000D01*
X111200000Y-96800000D01*
X111200000Y-85300000D01*
X109700000Y-85300000D01*
X109700000Y-96800000D01*
X107200000Y-96800000D01*
X107200000Y-85300000D01*
X105700000Y-85300000D01*
X105700000Y-96800000D01*
X105700000Y-98300000D01*
X121200000Y-98300000D01*
X121200000Y-96800000D01*
G36*
X105700000Y-84800000D02*
G01*
X107700000Y-84800000D01*
X107700000Y-96300000D01*
X109200000Y-96300000D01*
X109200000Y-84800000D01*
X111700000Y-84800000D01*
X111700000Y-96300000D01*
X113200000Y-96300000D01*
X113200000Y-84800000D01*
X115700000Y-84800000D01*
X115700000Y-96300000D01*
X117200000Y-96300000D01*
X117200000Y-84800000D01*
X119700000Y-84800000D01*
X119700000Y-96300000D01*
X121200000Y-96300000D01*
X121200000Y-84800000D01*
X121200000Y-83300000D01*
X105700000Y-83300000D01*
X105700000Y-84800000D01*
G37*
X105700000Y-84800000D02*
X107700000Y-84800000D01*
X107700000Y-96300000D01*
X109200000Y-96300000D01*
X109200000Y-84800000D01*
X111700000Y-84800000D01*
X111700000Y-96300000D01*
X113200000Y-96300000D01*
X113200000Y-84800000D01*
X115700000Y-84800000D01*
X115700000Y-96300000D01*
X117200000Y-96300000D01*
X117200000Y-84800000D01*
X119700000Y-84800000D01*
X119700000Y-96300000D01*
X121200000Y-96300000D01*
X121200000Y-84800000D01*
X121200000Y-83300000D01*
X105700000Y-83300000D01*
X105700000Y-84800000D01*
D11*
X106450000Y-86050000D03*
X106450000Y-84050000D03*
D12*
X104235000Y-76965000D03*
X113500000Y-77000000D03*
D13*
X103500000Y-77700000D02*
X104235000Y-76965000D01*
X103500000Y-85300000D02*
X103500000Y-77700000D01*
X104000000Y-85800000D02*
X103500000Y-85300000D01*
X106450000Y-85800000D02*
X104000000Y-85800000D01*
X109400000Y-77000000D02*
X113500000Y-77000000D01*
X106400000Y-80000000D02*
X109400000Y-77000000D01*
X106400000Y-83800000D02*
X106400000Y-80000000D01*
M02*
