G04 #@! TF.GenerationSoftware,KiCad,Pcbnew,(5.1.4-0-10_14)*
G04 #@! TF.CreationDate,2020-05-31T22:22:30+02:00*
G04 #@! TF.ProjectId,maskmeter,6d61736b-6d65-4746-9572-2e6b69636164,rev?*
G04 #@! TF.SameCoordinates,Original*
G04 #@! TF.FileFunction,Copper,L1,Top*
G04 #@! TF.FilePolarity,Positive*
%FSLAX46Y46*%
G04 Gerber Fmt 4.6, Leading zero omitted, Abs format (unit mm)*
G04 Created by KiCad (PCBNEW (5.1.4-0-10_14)) date 2020-05-31 22:22:30*
%MOMM*%
%LPD*%
G04 APERTURE LIST*
%ADD10R,3.600000X2.600000*%
%ADD11R,1.300000X3.400000*%
%ADD12R,1.000000X1.700000*%
%ADD13C,0.100000*%
%ADD14C,0.875000*%
%ADD15C,1.300000*%
%ADD16C,0.600000*%
%ADD17C,0.800000*%
%ADD18C,0.500000*%
%ADD19C,0.250000*%
%ADD20C,0.254000*%
G04 APERTURE END LIST*
D10*
X130000000Y-75950000D03*
X130000000Y-105250000D03*
D11*
X116350000Y-101000000D03*
X107650000Y-101000000D03*
D12*
X111100000Y-93150000D03*
X111100000Y-86850000D03*
X114900000Y-93150000D03*
X114900000Y-86850000D03*
D13*
G36*
X110227691Y-81026053D02*
G01*
X110248926Y-81029203D01*
X110269750Y-81034419D01*
X110289962Y-81041651D01*
X110309368Y-81050830D01*
X110327781Y-81061866D01*
X110345024Y-81074654D01*
X110360930Y-81089070D01*
X110375346Y-81104976D01*
X110388134Y-81122219D01*
X110399170Y-81140632D01*
X110408349Y-81160038D01*
X110415581Y-81180250D01*
X110420797Y-81201074D01*
X110423947Y-81222309D01*
X110425000Y-81243750D01*
X110425000Y-81756250D01*
X110423947Y-81777691D01*
X110420797Y-81798926D01*
X110415581Y-81819750D01*
X110408349Y-81839962D01*
X110399170Y-81859368D01*
X110388134Y-81877781D01*
X110375346Y-81895024D01*
X110360930Y-81910930D01*
X110345024Y-81925346D01*
X110327781Y-81938134D01*
X110309368Y-81949170D01*
X110289962Y-81958349D01*
X110269750Y-81965581D01*
X110248926Y-81970797D01*
X110227691Y-81973947D01*
X110206250Y-81975000D01*
X109768750Y-81975000D01*
X109747309Y-81973947D01*
X109726074Y-81970797D01*
X109705250Y-81965581D01*
X109685038Y-81958349D01*
X109665632Y-81949170D01*
X109647219Y-81938134D01*
X109629976Y-81925346D01*
X109614070Y-81910930D01*
X109599654Y-81895024D01*
X109586866Y-81877781D01*
X109575830Y-81859368D01*
X109566651Y-81839962D01*
X109559419Y-81819750D01*
X109554203Y-81798926D01*
X109551053Y-81777691D01*
X109550000Y-81756250D01*
X109550000Y-81243750D01*
X109551053Y-81222309D01*
X109554203Y-81201074D01*
X109559419Y-81180250D01*
X109566651Y-81160038D01*
X109575830Y-81140632D01*
X109586866Y-81122219D01*
X109599654Y-81104976D01*
X109614070Y-81089070D01*
X109629976Y-81074654D01*
X109647219Y-81061866D01*
X109665632Y-81050830D01*
X109685038Y-81041651D01*
X109705250Y-81034419D01*
X109726074Y-81029203D01*
X109747309Y-81026053D01*
X109768750Y-81025000D01*
X110206250Y-81025000D01*
X110227691Y-81026053D01*
X110227691Y-81026053D01*
G37*
D14*
X109987500Y-81500000D03*
D13*
G36*
X108652691Y-81026053D02*
G01*
X108673926Y-81029203D01*
X108694750Y-81034419D01*
X108714962Y-81041651D01*
X108734368Y-81050830D01*
X108752781Y-81061866D01*
X108770024Y-81074654D01*
X108785930Y-81089070D01*
X108800346Y-81104976D01*
X108813134Y-81122219D01*
X108824170Y-81140632D01*
X108833349Y-81160038D01*
X108840581Y-81180250D01*
X108845797Y-81201074D01*
X108848947Y-81222309D01*
X108850000Y-81243750D01*
X108850000Y-81756250D01*
X108848947Y-81777691D01*
X108845797Y-81798926D01*
X108840581Y-81819750D01*
X108833349Y-81839962D01*
X108824170Y-81859368D01*
X108813134Y-81877781D01*
X108800346Y-81895024D01*
X108785930Y-81910930D01*
X108770024Y-81925346D01*
X108752781Y-81938134D01*
X108734368Y-81949170D01*
X108714962Y-81958349D01*
X108694750Y-81965581D01*
X108673926Y-81970797D01*
X108652691Y-81973947D01*
X108631250Y-81975000D01*
X108193750Y-81975000D01*
X108172309Y-81973947D01*
X108151074Y-81970797D01*
X108130250Y-81965581D01*
X108110038Y-81958349D01*
X108090632Y-81949170D01*
X108072219Y-81938134D01*
X108054976Y-81925346D01*
X108039070Y-81910930D01*
X108024654Y-81895024D01*
X108011866Y-81877781D01*
X108000830Y-81859368D01*
X107991651Y-81839962D01*
X107984419Y-81819750D01*
X107979203Y-81798926D01*
X107976053Y-81777691D01*
X107975000Y-81756250D01*
X107975000Y-81243750D01*
X107976053Y-81222309D01*
X107979203Y-81201074D01*
X107984419Y-81180250D01*
X107991651Y-81160038D01*
X108000830Y-81140632D01*
X108011866Y-81122219D01*
X108024654Y-81104976D01*
X108039070Y-81089070D01*
X108054976Y-81074654D01*
X108072219Y-81061866D01*
X108090632Y-81050830D01*
X108110038Y-81041651D01*
X108130250Y-81034419D01*
X108151074Y-81029203D01*
X108172309Y-81026053D01*
X108193750Y-81025000D01*
X108631250Y-81025000D01*
X108652691Y-81026053D01*
X108652691Y-81026053D01*
G37*
D14*
X108412500Y-81500000D03*
D13*
G36*
X104277691Y-97638553D02*
G01*
X104298926Y-97641703D01*
X104319750Y-97646919D01*
X104339962Y-97654151D01*
X104359368Y-97663330D01*
X104377781Y-97674366D01*
X104395024Y-97687154D01*
X104410930Y-97701570D01*
X104425346Y-97717476D01*
X104438134Y-97734719D01*
X104449170Y-97753132D01*
X104458349Y-97772538D01*
X104465581Y-97792750D01*
X104470797Y-97813574D01*
X104473947Y-97834809D01*
X104475000Y-97856250D01*
X104475000Y-98293750D01*
X104473947Y-98315191D01*
X104470797Y-98336426D01*
X104465581Y-98357250D01*
X104458349Y-98377462D01*
X104449170Y-98396868D01*
X104438134Y-98415281D01*
X104425346Y-98432524D01*
X104410930Y-98448430D01*
X104395024Y-98462846D01*
X104377781Y-98475634D01*
X104359368Y-98486670D01*
X104339962Y-98495849D01*
X104319750Y-98503081D01*
X104298926Y-98508297D01*
X104277691Y-98511447D01*
X104256250Y-98512500D01*
X103743750Y-98512500D01*
X103722309Y-98511447D01*
X103701074Y-98508297D01*
X103680250Y-98503081D01*
X103660038Y-98495849D01*
X103640632Y-98486670D01*
X103622219Y-98475634D01*
X103604976Y-98462846D01*
X103589070Y-98448430D01*
X103574654Y-98432524D01*
X103561866Y-98415281D01*
X103550830Y-98396868D01*
X103541651Y-98377462D01*
X103534419Y-98357250D01*
X103529203Y-98336426D01*
X103526053Y-98315191D01*
X103525000Y-98293750D01*
X103525000Y-97856250D01*
X103526053Y-97834809D01*
X103529203Y-97813574D01*
X103534419Y-97792750D01*
X103541651Y-97772538D01*
X103550830Y-97753132D01*
X103561866Y-97734719D01*
X103574654Y-97717476D01*
X103589070Y-97701570D01*
X103604976Y-97687154D01*
X103622219Y-97674366D01*
X103640632Y-97663330D01*
X103660038Y-97654151D01*
X103680250Y-97646919D01*
X103701074Y-97641703D01*
X103722309Y-97638553D01*
X103743750Y-97637500D01*
X104256250Y-97637500D01*
X104277691Y-97638553D01*
X104277691Y-97638553D01*
G37*
D14*
X104000000Y-98075000D03*
D13*
G36*
X104277691Y-96063553D02*
G01*
X104298926Y-96066703D01*
X104319750Y-96071919D01*
X104339962Y-96079151D01*
X104359368Y-96088330D01*
X104377781Y-96099366D01*
X104395024Y-96112154D01*
X104410930Y-96126570D01*
X104425346Y-96142476D01*
X104438134Y-96159719D01*
X104449170Y-96178132D01*
X104458349Y-96197538D01*
X104465581Y-96217750D01*
X104470797Y-96238574D01*
X104473947Y-96259809D01*
X104475000Y-96281250D01*
X104475000Y-96718750D01*
X104473947Y-96740191D01*
X104470797Y-96761426D01*
X104465581Y-96782250D01*
X104458349Y-96802462D01*
X104449170Y-96821868D01*
X104438134Y-96840281D01*
X104425346Y-96857524D01*
X104410930Y-96873430D01*
X104395024Y-96887846D01*
X104377781Y-96900634D01*
X104359368Y-96911670D01*
X104339962Y-96920849D01*
X104319750Y-96928081D01*
X104298926Y-96933297D01*
X104277691Y-96936447D01*
X104256250Y-96937500D01*
X103743750Y-96937500D01*
X103722309Y-96936447D01*
X103701074Y-96933297D01*
X103680250Y-96928081D01*
X103660038Y-96920849D01*
X103640632Y-96911670D01*
X103622219Y-96900634D01*
X103604976Y-96887846D01*
X103589070Y-96873430D01*
X103574654Y-96857524D01*
X103561866Y-96840281D01*
X103550830Y-96821868D01*
X103541651Y-96802462D01*
X103534419Y-96782250D01*
X103529203Y-96761426D01*
X103526053Y-96740191D01*
X103525000Y-96718750D01*
X103525000Y-96281250D01*
X103526053Y-96259809D01*
X103529203Y-96238574D01*
X103534419Y-96217750D01*
X103541651Y-96197538D01*
X103550830Y-96178132D01*
X103561866Y-96159719D01*
X103574654Y-96142476D01*
X103589070Y-96126570D01*
X103604976Y-96112154D01*
X103622219Y-96099366D01*
X103640632Y-96088330D01*
X103660038Y-96079151D01*
X103680250Y-96071919D01*
X103701074Y-96066703D01*
X103722309Y-96063553D01*
X103743750Y-96062500D01*
X104256250Y-96062500D01*
X104277691Y-96063553D01*
X104277691Y-96063553D01*
G37*
D14*
X104000000Y-96500000D03*
D13*
G36*
X104377691Y-81776053D02*
G01*
X104398926Y-81779203D01*
X104419750Y-81784419D01*
X104439962Y-81791651D01*
X104459368Y-81800830D01*
X104477781Y-81811866D01*
X104495024Y-81824654D01*
X104510930Y-81839070D01*
X104525346Y-81854976D01*
X104538134Y-81872219D01*
X104549170Y-81890632D01*
X104558349Y-81910038D01*
X104565581Y-81930250D01*
X104570797Y-81951074D01*
X104573947Y-81972309D01*
X104575000Y-81993750D01*
X104575000Y-82431250D01*
X104573947Y-82452691D01*
X104570797Y-82473926D01*
X104565581Y-82494750D01*
X104558349Y-82514962D01*
X104549170Y-82534368D01*
X104538134Y-82552781D01*
X104525346Y-82570024D01*
X104510930Y-82585930D01*
X104495024Y-82600346D01*
X104477781Y-82613134D01*
X104459368Y-82624170D01*
X104439962Y-82633349D01*
X104419750Y-82640581D01*
X104398926Y-82645797D01*
X104377691Y-82648947D01*
X104356250Y-82650000D01*
X103843750Y-82650000D01*
X103822309Y-82648947D01*
X103801074Y-82645797D01*
X103780250Y-82640581D01*
X103760038Y-82633349D01*
X103740632Y-82624170D01*
X103722219Y-82613134D01*
X103704976Y-82600346D01*
X103689070Y-82585930D01*
X103674654Y-82570024D01*
X103661866Y-82552781D01*
X103650830Y-82534368D01*
X103641651Y-82514962D01*
X103634419Y-82494750D01*
X103629203Y-82473926D01*
X103626053Y-82452691D01*
X103625000Y-82431250D01*
X103625000Y-81993750D01*
X103626053Y-81972309D01*
X103629203Y-81951074D01*
X103634419Y-81930250D01*
X103641651Y-81910038D01*
X103650830Y-81890632D01*
X103661866Y-81872219D01*
X103674654Y-81854976D01*
X103689070Y-81839070D01*
X103704976Y-81824654D01*
X103722219Y-81811866D01*
X103740632Y-81800830D01*
X103760038Y-81791651D01*
X103780250Y-81784419D01*
X103801074Y-81779203D01*
X103822309Y-81776053D01*
X103843750Y-81775000D01*
X104356250Y-81775000D01*
X104377691Y-81776053D01*
X104377691Y-81776053D01*
G37*
D14*
X104100000Y-82212500D03*
D13*
G36*
X104377691Y-83351053D02*
G01*
X104398926Y-83354203D01*
X104419750Y-83359419D01*
X104439962Y-83366651D01*
X104459368Y-83375830D01*
X104477781Y-83386866D01*
X104495024Y-83399654D01*
X104510930Y-83414070D01*
X104525346Y-83429976D01*
X104538134Y-83447219D01*
X104549170Y-83465632D01*
X104558349Y-83485038D01*
X104565581Y-83505250D01*
X104570797Y-83526074D01*
X104573947Y-83547309D01*
X104575000Y-83568750D01*
X104575000Y-84006250D01*
X104573947Y-84027691D01*
X104570797Y-84048926D01*
X104565581Y-84069750D01*
X104558349Y-84089962D01*
X104549170Y-84109368D01*
X104538134Y-84127781D01*
X104525346Y-84145024D01*
X104510930Y-84160930D01*
X104495024Y-84175346D01*
X104477781Y-84188134D01*
X104459368Y-84199170D01*
X104439962Y-84208349D01*
X104419750Y-84215581D01*
X104398926Y-84220797D01*
X104377691Y-84223947D01*
X104356250Y-84225000D01*
X103843750Y-84225000D01*
X103822309Y-84223947D01*
X103801074Y-84220797D01*
X103780250Y-84215581D01*
X103760038Y-84208349D01*
X103740632Y-84199170D01*
X103722219Y-84188134D01*
X103704976Y-84175346D01*
X103689070Y-84160930D01*
X103674654Y-84145024D01*
X103661866Y-84127781D01*
X103650830Y-84109368D01*
X103641651Y-84089962D01*
X103634419Y-84069750D01*
X103629203Y-84048926D01*
X103626053Y-84027691D01*
X103625000Y-84006250D01*
X103625000Y-83568750D01*
X103626053Y-83547309D01*
X103629203Y-83526074D01*
X103634419Y-83505250D01*
X103641651Y-83485038D01*
X103650830Y-83465632D01*
X103661866Y-83447219D01*
X103674654Y-83429976D01*
X103689070Y-83414070D01*
X103704976Y-83399654D01*
X103722219Y-83386866D01*
X103740632Y-83375830D01*
X103760038Y-83366651D01*
X103780250Y-83359419D01*
X103801074Y-83354203D01*
X103822309Y-83351053D01*
X103843750Y-83350000D01*
X104356250Y-83350000D01*
X104377691Y-83351053D01*
X104377691Y-83351053D01*
G37*
D14*
X104100000Y-83787500D03*
D13*
G36*
X104424504Y-93338704D02*
G01*
X104448773Y-93342304D01*
X104472571Y-93348265D01*
X104495671Y-93356530D01*
X104517849Y-93367020D01*
X104538893Y-93379633D01*
X104558598Y-93394247D01*
X104576777Y-93410723D01*
X104593253Y-93428902D01*
X104607867Y-93448607D01*
X104620480Y-93469651D01*
X104630970Y-93491829D01*
X104639235Y-93514929D01*
X104645196Y-93538727D01*
X104648796Y-93562996D01*
X104650000Y-93587500D01*
X104650000Y-94412500D01*
X104648796Y-94437004D01*
X104645196Y-94461273D01*
X104639235Y-94485071D01*
X104630970Y-94508171D01*
X104620480Y-94530349D01*
X104607867Y-94551393D01*
X104593253Y-94571098D01*
X104576777Y-94589277D01*
X104558598Y-94605753D01*
X104538893Y-94620367D01*
X104517849Y-94632980D01*
X104495671Y-94643470D01*
X104472571Y-94651735D01*
X104448773Y-94657696D01*
X104424504Y-94661296D01*
X104400000Y-94662500D01*
X103600000Y-94662500D01*
X103575496Y-94661296D01*
X103551227Y-94657696D01*
X103527429Y-94651735D01*
X103504329Y-94643470D01*
X103482151Y-94632980D01*
X103461107Y-94620367D01*
X103441402Y-94605753D01*
X103423223Y-94589277D01*
X103406747Y-94571098D01*
X103392133Y-94551393D01*
X103379520Y-94530349D01*
X103369030Y-94508171D01*
X103360765Y-94485071D01*
X103354804Y-94461273D01*
X103351204Y-94437004D01*
X103350000Y-94412500D01*
X103350000Y-93587500D01*
X103351204Y-93562996D01*
X103354804Y-93538727D01*
X103360765Y-93514929D01*
X103369030Y-93491829D01*
X103379520Y-93469651D01*
X103392133Y-93448607D01*
X103406747Y-93428902D01*
X103423223Y-93410723D01*
X103441402Y-93394247D01*
X103461107Y-93379633D01*
X103482151Y-93367020D01*
X103504329Y-93356530D01*
X103527429Y-93348265D01*
X103551227Y-93342304D01*
X103575496Y-93338704D01*
X103600000Y-93337500D01*
X104400000Y-93337500D01*
X104424504Y-93338704D01*
X104424504Y-93338704D01*
G37*
D15*
X104000000Y-94000000D03*
D13*
G36*
X104424504Y-91413704D02*
G01*
X104448773Y-91417304D01*
X104472571Y-91423265D01*
X104495671Y-91431530D01*
X104517849Y-91442020D01*
X104538893Y-91454633D01*
X104558598Y-91469247D01*
X104576777Y-91485723D01*
X104593253Y-91503902D01*
X104607867Y-91523607D01*
X104620480Y-91544651D01*
X104630970Y-91566829D01*
X104639235Y-91589929D01*
X104645196Y-91613727D01*
X104648796Y-91637996D01*
X104650000Y-91662500D01*
X104650000Y-92487500D01*
X104648796Y-92512004D01*
X104645196Y-92536273D01*
X104639235Y-92560071D01*
X104630970Y-92583171D01*
X104620480Y-92605349D01*
X104607867Y-92626393D01*
X104593253Y-92646098D01*
X104576777Y-92664277D01*
X104558598Y-92680753D01*
X104538893Y-92695367D01*
X104517849Y-92707980D01*
X104495671Y-92718470D01*
X104472571Y-92726735D01*
X104448773Y-92732696D01*
X104424504Y-92736296D01*
X104400000Y-92737500D01*
X103600000Y-92737500D01*
X103575496Y-92736296D01*
X103551227Y-92732696D01*
X103527429Y-92726735D01*
X103504329Y-92718470D01*
X103482151Y-92707980D01*
X103461107Y-92695367D01*
X103441402Y-92680753D01*
X103423223Y-92664277D01*
X103406747Y-92646098D01*
X103392133Y-92626393D01*
X103379520Y-92605349D01*
X103369030Y-92583171D01*
X103360765Y-92560071D01*
X103354804Y-92536273D01*
X103351204Y-92512004D01*
X103350000Y-92487500D01*
X103350000Y-91662500D01*
X103351204Y-91637996D01*
X103354804Y-91613727D01*
X103360765Y-91589929D01*
X103369030Y-91566829D01*
X103379520Y-91544651D01*
X103392133Y-91523607D01*
X103406747Y-91503902D01*
X103423223Y-91485723D01*
X103441402Y-91469247D01*
X103461107Y-91454633D01*
X103482151Y-91442020D01*
X103504329Y-91431530D01*
X103527429Y-91423265D01*
X103551227Y-91417304D01*
X103575496Y-91413704D01*
X103600000Y-91412500D01*
X104400000Y-91412500D01*
X104424504Y-91413704D01*
X104424504Y-91413704D01*
G37*
D15*
X104000000Y-92075000D03*
D13*
G36*
X104424504Y-87338704D02*
G01*
X104448773Y-87342304D01*
X104472571Y-87348265D01*
X104495671Y-87356530D01*
X104517849Y-87367020D01*
X104538893Y-87379633D01*
X104558598Y-87394247D01*
X104576777Y-87410723D01*
X104593253Y-87428902D01*
X104607867Y-87448607D01*
X104620480Y-87469651D01*
X104630970Y-87491829D01*
X104639235Y-87514929D01*
X104645196Y-87538727D01*
X104648796Y-87562996D01*
X104650000Y-87587500D01*
X104650000Y-88412500D01*
X104648796Y-88437004D01*
X104645196Y-88461273D01*
X104639235Y-88485071D01*
X104630970Y-88508171D01*
X104620480Y-88530349D01*
X104607867Y-88551393D01*
X104593253Y-88571098D01*
X104576777Y-88589277D01*
X104558598Y-88605753D01*
X104538893Y-88620367D01*
X104517849Y-88632980D01*
X104495671Y-88643470D01*
X104472571Y-88651735D01*
X104448773Y-88657696D01*
X104424504Y-88661296D01*
X104400000Y-88662500D01*
X103600000Y-88662500D01*
X103575496Y-88661296D01*
X103551227Y-88657696D01*
X103527429Y-88651735D01*
X103504329Y-88643470D01*
X103482151Y-88632980D01*
X103461107Y-88620367D01*
X103441402Y-88605753D01*
X103423223Y-88589277D01*
X103406747Y-88571098D01*
X103392133Y-88551393D01*
X103379520Y-88530349D01*
X103369030Y-88508171D01*
X103360765Y-88485071D01*
X103354804Y-88461273D01*
X103351204Y-88437004D01*
X103350000Y-88412500D01*
X103350000Y-87587500D01*
X103351204Y-87562996D01*
X103354804Y-87538727D01*
X103360765Y-87514929D01*
X103369030Y-87491829D01*
X103379520Y-87469651D01*
X103392133Y-87448607D01*
X103406747Y-87428902D01*
X103423223Y-87410723D01*
X103441402Y-87394247D01*
X103461107Y-87379633D01*
X103482151Y-87367020D01*
X103504329Y-87356530D01*
X103527429Y-87348265D01*
X103551227Y-87342304D01*
X103575496Y-87338704D01*
X103600000Y-87337500D01*
X104400000Y-87337500D01*
X104424504Y-87338704D01*
X104424504Y-87338704D01*
G37*
D15*
X104000000Y-88000000D03*
D13*
G36*
X104424504Y-85413704D02*
G01*
X104448773Y-85417304D01*
X104472571Y-85423265D01*
X104495671Y-85431530D01*
X104517849Y-85442020D01*
X104538893Y-85454633D01*
X104558598Y-85469247D01*
X104576777Y-85485723D01*
X104593253Y-85503902D01*
X104607867Y-85523607D01*
X104620480Y-85544651D01*
X104630970Y-85566829D01*
X104639235Y-85589929D01*
X104645196Y-85613727D01*
X104648796Y-85637996D01*
X104650000Y-85662500D01*
X104650000Y-86487500D01*
X104648796Y-86512004D01*
X104645196Y-86536273D01*
X104639235Y-86560071D01*
X104630970Y-86583171D01*
X104620480Y-86605349D01*
X104607867Y-86626393D01*
X104593253Y-86646098D01*
X104576777Y-86664277D01*
X104558598Y-86680753D01*
X104538893Y-86695367D01*
X104517849Y-86707980D01*
X104495671Y-86718470D01*
X104472571Y-86726735D01*
X104448773Y-86732696D01*
X104424504Y-86736296D01*
X104400000Y-86737500D01*
X103600000Y-86737500D01*
X103575496Y-86736296D01*
X103551227Y-86732696D01*
X103527429Y-86726735D01*
X103504329Y-86718470D01*
X103482151Y-86707980D01*
X103461107Y-86695367D01*
X103441402Y-86680753D01*
X103423223Y-86664277D01*
X103406747Y-86646098D01*
X103392133Y-86626393D01*
X103379520Y-86605349D01*
X103369030Y-86583171D01*
X103360765Y-86560071D01*
X103354804Y-86536273D01*
X103351204Y-86512004D01*
X103350000Y-86487500D01*
X103350000Y-85662500D01*
X103351204Y-85637996D01*
X103354804Y-85613727D01*
X103360765Y-85589929D01*
X103369030Y-85566829D01*
X103379520Y-85544651D01*
X103392133Y-85523607D01*
X103406747Y-85503902D01*
X103423223Y-85485723D01*
X103441402Y-85469247D01*
X103461107Y-85454633D01*
X103482151Y-85442020D01*
X103504329Y-85431530D01*
X103527429Y-85423265D01*
X103551227Y-85417304D01*
X103575496Y-85413704D01*
X103600000Y-85412500D01*
X104400000Y-85412500D01*
X104424504Y-85413704D01*
X104424504Y-85413704D01*
G37*
D15*
X104000000Y-86075000D03*
D13*
G36*
X116727691Y-79426053D02*
G01*
X116748926Y-79429203D01*
X116769750Y-79434419D01*
X116789962Y-79441651D01*
X116809368Y-79450830D01*
X116827781Y-79461866D01*
X116845024Y-79474654D01*
X116860930Y-79489070D01*
X116875346Y-79504976D01*
X116888134Y-79522219D01*
X116899170Y-79540632D01*
X116908349Y-79560038D01*
X116915581Y-79580250D01*
X116920797Y-79601074D01*
X116923947Y-79622309D01*
X116925000Y-79643750D01*
X116925000Y-80156250D01*
X116923947Y-80177691D01*
X116920797Y-80198926D01*
X116915581Y-80219750D01*
X116908349Y-80239962D01*
X116899170Y-80259368D01*
X116888134Y-80277781D01*
X116875346Y-80295024D01*
X116860930Y-80310930D01*
X116845024Y-80325346D01*
X116827781Y-80338134D01*
X116809368Y-80349170D01*
X116789962Y-80358349D01*
X116769750Y-80365581D01*
X116748926Y-80370797D01*
X116727691Y-80373947D01*
X116706250Y-80375000D01*
X116268750Y-80375000D01*
X116247309Y-80373947D01*
X116226074Y-80370797D01*
X116205250Y-80365581D01*
X116185038Y-80358349D01*
X116165632Y-80349170D01*
X116147219Y-80338134D01*
X116129976Y-80325346D01*
X116114070Y-80310930D01*
X116099654Y-80295024D01*
X116086866Y-80277781D01*
X116075830Y-80259368D01*
X116066651Y-80239962D01*
X116059419Y-80219750D01*
X116054203Y-80198926D01*
X116051053Y-80177691D01*
X116050000Y-80156250D01*
X116050000Y-79643750D01*
X116051053Y-79622309D01*
X116054203Y-79601074D01*
X116059419Y-79580250D01*
X116066651Y-79560038D01*
X116075830Y-79540632D01*
X116086866Y-79522219D01*
X116099654Y-79504976D01*
X116114070Y-79489070D01*
X116129976Y-79474654D01*
X116147219Y-79461866D01*
X116165632Y-79450830D01*
X116185038Y-79441651D01*
X116205250Y-79434419D01*
X116226074Y-79429203D01*
X116247309Y-79426053D01*
X116268750Y-79425000D01*
X116706250Y-79425000D01*
X116727691Y-79426053D01*
X116727691Y-79426053D01*
G37*
D14*
X116487500Y-79900000D03*
D13*
G36*
X115152691Y-79426053D02*
G01*
X115173926Y-79429203D01*
X115194750Y-79434419D01*
X115214962Y-79441651D01*
X115234368Y-79450830D01*
X115252781Y-79461866D01*
X115270024Y-79474654D01*
X115285930Y-79489070D01*
X115300346Y-79504976D01*
X115313134Y-79522219D01*
X115324170Y-79540632D01*
X115333349Y-79560038D01*
X115340581Y-79580250D01*
X115345797Y-79601074D01*
X115348947Y-79622309D01*
X115350000Y-79643750D01*
X115350000Y-80156250D01*
X115348947Y-80177691D01*
X115345797Y-80198926D01*
X115340581Y-80219750D01*
X115333349Y-80239962D01*
X115324170Y-80259368D01*
X115313134Y-80277781D01*
X115300346Y-80295024D01*
X115285930Y-80310930D01*
X115270024Y-80325346D01*
X115252781Y-80338134D01*
X115234368Y-80349170D01*
X115214962Y-80358349D01*
X115194750Y-80365581D01*
X115173926Y-80370797D01*
X115152691Y-80373947D01*
X115131250Y-80375000D01*
X114693750Y-80375000D01*
X114672309Y-80373947D01*
X114651074Y-80370797D01*
X114630250Y-80365581D01*
X114610038Y-80358349D01*
X114590632Y-80349170D01*
X114572219Y-80338134D01*
X114554976Y-80325346D01*
X114539070Y-80310930D01*
X114524654Y-80295024D01*
X114511866Y-80277781D01*
X114500830Y-80259368D01*
X114491651Y-80239962D01*
X114484419Y-80219750D01*
X114479203Y-80198926D01*
X114476053Y-80177691D01*
X114475000Y-80156250D01*
X114475000Y-79643750D01*
X114476053Y-79622309D01*
X114479203Y-79601074D01*
X114484419Y-79580250D01*
X114491651Y-79560038D01*
X114500830Y-79540632D01*
X114511866Y-79522219D01*
X114524654Y-79504976D01*
X114539070Y-79489070D01*
X114554976Y-79474654D01*
X114572219Y-79461866D01*
X114590632Y-79450830D01*
X114610038Y-79441651D01*
X114630250Y-79434419D01*
X114651074Y-79429203D01*
X114672309Y-79426053D01*
X114693750Y-79425000D01*
X115131250Y-79425000D01*
X115152691Y-79426053D01*
X115152691Y-79426053D01*
G37*
D14*
X114912500Y-79900000D03*
D13*
G36*
X115152691Y-77626053D02*
G01*
X115173926Y-77629203D01*
X115194750Y-77634419D01*
X115214962Y-77641651D01*
X115234368Y-77650830D01*
X115252781Y-77661866D01*
X115270024Y-77674654D01*
X115285930Y-77689070D01*
X115300346Y-77704976D01*
X115313134Y-77722219D01*
X115324170Y-77740632D01*
X115333349Y-77760038D01*
X115340581Y-77780250D01*
X115345797Y-77801074D01*
X115348947Y-77822309D01*
X115350000Y-77843750D01*
X115350000Y-78356250D01*
X115348947Y-78377691D01*
X115345797Y-78398926D01*
X115340581Y-78419750D01*
X115333349Y-78439962D01*
X115324170Y-78459368D01*
X115313134Y-78477781D01*
X115300346Y-78495024D01*
X115285930Y-78510930D01*
X115270024Y-78525346D01*
X115252781Y-78538134D01*
X115234368Y-78549170D01*
X115214962Y-78558349D01*
X115194750Y-78565581D01*
X115173926Y-78570797D01*
X115152691Y-78573947D01*
X115131250Y-78575000D01*
X114693750Y-78575000D01*
X114672309Y-78573947D01*
X114651074Y-78570797D01*
X114630250Y-78565581D01*
X114610038Y-78558349D01*
X114590632Y-78549170D01*
X114572219Y-78538134D01*
X114554976Y-78525346D01*
X114539070Y-78510930D01*
X114524654Y-78495024D01*
X114511866Y-78477781D01*
X114500830Y-78459368D01*
X114491651Y-78439962D01*
X114484419Y-78419750D01*
X114479203Y-78398926D01*
X114476053Y-78377691D01*
X114475000Y-78356250D01*
X114475000Y-77843750D01*
X114476053Y-77822309D01*
X114479203Y-77801074D01*
X114484419Y-77780250D01*
X114491651Y-77760038D01*
X114500830Y-77740632D01*
X114511866Y-77722219D01*
X114524654Y-77704976D01*
X114539070Y-77689070D01*
X114554976Y-77674654D01*
X114572219Y-77661866D01*
X114590632Y-77650830D01*
X114610038Y-77641651D01*
X114630250Y-77634419D01*
X114651074Y-77629203D01*
X114672309Y-77626053D01*
X114693750Y-77625000D01*
X115131250Y-77625000D01*
X115152691Y-77626053D01*
X115152691Y-77626053D01*
G37*
D14*
X114912500Y-78100000D03*
D13*
G36*
X116727691Y-77626053D02*
G01*
X116748926Y-77629203D01*
X116769750Y-77634419D01*
X116789962Y-77641651D01*
X116809368Y-77650830D01*
X116827781Y-77661866D01*
X116845024Y-77674654D01*
X116860930Y-77689070D01*
X116875346Y-77704976D01*
X116888134Y-77722219D01*
X116899170Y-77740632D01*
X116908349Y-77760038D01*
X116915581Y-77780250D01*
X116920797Y-77801074D01*
X116923947Y-77822309D01*
X116925000Y-77843750D01*
X116925000Y-78356250D01*
X116923947Y-78377691D01*
X116920797Y-78398926D01*
X116915581Y-78419750D01*
X116908349Y-78439962D01*
X116899170Y-78459368D01*
X116888134Y-78477781D01*
X116875346Y-78495024D01*
X116860930Y-78510930D01*
X116845024Y-78525346D01*
X116827781Y-78538134D01*
X116809368Y-78549170D01*
X116789962Y-78558349D01*
X116769750Y-78565581D01*
X116748926Y-78570797D01*
X116727691Y-78573947D01*
X116706250Y-78575000D01*
X116268750Y-78575000D01*
X116247309Y-78573947D01*
X116226074Y-78570797D01*
X116205250Y-78565581D01*
X116185038Y-78558349D01*
X116165632Y-78549170D01*
X116147219Y-78538134D01*
X116129976Y-78525346D01*
X116114070Y-78510930D01*
X116099654Y-78495024D01*
X116086866Y-78477781D01*
X116075830Y-78459368D01*
X116066651Y-78439962D01*
X116059419Y-78419750D01*
X116054203Y-78398926D01*
X116051053Y-78377691D01*
X116050000Y-78356250D01*
X116050000Y-77843750D01*
X116051053Y-77822309D01*
X116054203Y-77801074D01*
X116059419Y-77780250D01*
X116066651Y-77760038D01*
X116075830Y-77740632D01*
X116086866Y-77722219D01*
X116099654Y-77704976D01*
X116114070Y-77689070D01*
X116129976Y-77674654D01*
X116147219Y-77661866D01*
X116165632Y-77650830D01*
X116185038Y-77641651D01*
X116205250Y-77634419D01*
X116226074Y-77629203D01*
X116247309Y-77626053D01*
X116268750Y-77625000D01*
X116706250Y-77625000D01*
X116727691Y-77626053D01*
X116727691Y-77626053D01*
G37*
D14*
X116487500Y-78100000D03*
D13*
G36*
X112414703Y-75395722D02*
G01*
X112429264Y-75397882D01*
X112443543Y-75401459D01*
X112457403Y-75406418D01*
X112470710Y-75412712D01*
X112483336Y-75420280D01*
X112495159Y-75429048D01*
X112506066Y-75438934D01*
X112515952Y-75449841D01*
X112524720Y-75461664D01*
X112532288Y-75474290D01*
X112538582Y-75487597D01*
X112543541Y-75501457D01*
X112547118Y-75515736D01*
X112549278Y-75530297D01*
X112550000Y-75545000D01*
X112550000Y-75845000D01*
X112549278Y-75859703D01*
X112547118Y-75874264D01*
X112543541Y-75888543D01*
X112538582Y-75902403D01*
X112532288Y-75915710D01*
X112524720Y-75928336D01*
X112515952Y-75940159D01*
X112506066Y-75951066D01*
X112495159Y-75960952D01*
X112483336Y-75969720D01*
X112470710Y-75977288D01*
X112457403Y-75983582D01*
X112443543Y-75988541D01*
X112429264Y-75992118D01*
X112414703Y-75994278D01*
X112400000Y-75995000D01*
X110750000Y-75995000D01*
X110735297Y-75994278D01*
X110720736Y-75992118D01*
X110706457Y-75988541D01*
X110692597Y-75983582D01*
X110679290Y-75977288D01*
X110666664Y-75969720D01*
X110654841Y-75960952D01*
X110643934Y-75951066D01*
X110634048Y-75940159D01*
X110625280Y-75928336D01*
X110617712Y-75915710D01*
X110611418Y-75902403D01*
X110606459Y-75888543D01*
X110602882Y-75874264D01*
X110600722Y-75859703D01*
X110600000Y-75845000D01*
X110600000Y-75545000D01*
X110600722Y-75530297D01*
X110602882Y-75515736D01*
X110606459Y-75501457D01*
X110611418Y-75487597D01*
X110617712Y-75474290D01*
X110625280Y-75461664D01*
X110634048Y-75449841D01*
X110643934Y-75438934D01*
X110654841Y-75429048D01*
X110666664Y-75420280D01*
X110679290Y-75412712D01*
X110692597Y-75406418D01*
X110706457Y-75401459D01*
X110720736Y-75397882D01*
X110735297Y-75395722D01*
X110750000Y-75395000D01*
X112400000Y-75395000D01*
X112414703Y-75395722D01*
X112414703Y-75395722D01*
G37*
D16*
X111575000Y-75695000D03*
D13*
G36*
X112414703Y-76665722D02*
G01*
X112429264Y-76667882D01*
X112443543Y-76671459D01*
X112457403Y-76676418D01*
X112470710Y-76682712D01*
X112483336Y-76690280D01*
X112495159Y-76699048D01*
X112506066Y-76708934D01*
X112515952Y-76719841D01*
X112524720Y-76731664D01*
X112532288Y-76744290D01*
X112538582Y-76757597D01*
X112543541Y-76771457D01*
X112547118Y-76785736D01*
X112549278Y-76800297D01*
X112550000Y-76815000D01*
X112550000Y-77115000D01*
X112549278Y-77129703D01*
X112547118Y-77144264D01*
X112543541Y-77158543D01*
X112538582Y-77172403D01*
X112532288Y-77185710D01*
X112524720Y-77198336D01*
X112515952Y-77210159D01*
X112506066Y-77221066D01*
X112495159Y-77230952D01*
X112483336Y-77239720D01*
X112470710Y-77247288D01*
X112457403Y-77253582D01*
X112443543Y-77258541D01*
X112429264Y-77262118D01*
X112414703Y-77264278D01*
X112400000Y-77265000D01*
X110750000Y-77265000D01*
X110735297Y-77264278D01*
X110720736Y-77262118D01*
X110706457Y-77258541D01*
X110692597Y-77253582D01*
X110679290Y-77247288D01*
X110666664Y-77239720D01*
X110654841Y-77230952D01*
X110643934Y-77221066D01*
X110634048Y-77210159D01*
X110625280Y-77198336D01*
X110617712Y-77185710D01*
X110611418Y-77172403D01*
X110606459Y-77158543D01*
X110602882Y-77144264D01*
X110600722Y-77129703D01*
X110600000Y-77115000D01*
X110600000Y-76815000D01*
X110600722Y-76800297D01*
X110602882Y-76785736D01*
X110606459Y-76771457D01*
X110611418Y-76757597D01*
X110617712Y-76744290D01*
X110625280Y-76731664D01*
X110634048Y-76719841D01*
X110643934Y-76708934D01*
X110654841Y-76699048D01*
X110666664Y-76690280D01*
X110679290Y-76682712D01*
X110692597Y-76676418D01*
X110706457Y-76671459D01*
X110720736Y-76667882D01*
X110735297Y-76665722D01*
X110750000Y-76665000D01*
X112400000Y-76665000D01*
X112414703Y-76665722D01*
X112414703Y-76665722D01*
G37*
D16*
X111575000Y-76965000D03*
D13*
G36*
X112414703Y-77935722D02*
G01*
X112429264Y-77937882D01*
X112443543Y-77941459D01*
X112457403Y-77946418D01*
X112470710Y-77952712D01*
X112483336Y-77960280D01*
X112495159Y-77969048D01*
X112506066Y-77978934D01*
X112515952Y-77989841D01*
X112524720Y-78001664D01*
X112532288Y-78014290D01*
X112538582Y-78027597D01*
X112543541Y-78041457D01*
X112547118Y-78055736D01*
X112549278Y-78070297D01*
X112550000Y-78085000D01*
X112550000Y-78385000D01*
X112549278Y-78399703D01*
X112547118Y-78414264D01*
X112543541Y-78428543D01*
X112538582Y-78442403D01*
X112532288Y-78455710D01*
X112524720Y-78468336D01*
X112515952Y-78480159D01*
X112506066Y-78491066D01*
X112495159Y-78500952D01*
X112483336Y-78509720D01*
X112470710Y-78517288D01*
X112457403Y-78523582D01*
X112443543Y-78528541D01*
X112429264Y-78532118D01*
X112414703Y-78534278D01*
X112400000Y-78535000D01*
X110750000Y-78535000D01*
X110735297Y-78534278D01*
X110720736Y-78532118D01*
X110706457Y-78528541D01*
X110692597Y-78523582D01*
X110679290Y-78517288D01*
X110666664Y-78509720D01*
X110654841Y-78500952D01*
X110643934Y-78491066D01*
X110634048Y-78480159D01*
X110625280Y-78468336D01*
X110617712Y-78455710D01*
X110611418Y-78442403D01*
X110606459Y-78428543D01*
X110602882Y-78414264D01*
X110600722Y-78399703D01*
X110600000Y-78385000D01*
X110600000Y-78085000D01*
X110600722Y-78070297D01*
X110602882Y-78055736D01*
X110606459Y-78041457D01*
X110611418Y-78027597D01*
X110617712Y-78014290D01*
X110625280Y-78001664D01*
X110634048Y-77989841D01*
X110643934Y-77978934D01*
X110654841Y-77969048D01*
X110666664Y-77960280D01*
X110679290Y-77952712D01*
X110692597Y-77946418D01*
X110706457Y-77941459D01*
X110720736Y-77937882D01*
X110735297Y-77935722D01*
X110750000Y-77935000D01*
X112400000Y-77935000D01*
X112414703Y-77935722D01*
X112414703Y-77935722D01*
G37*
D16*
X111575000Y-78235000D03*
D13*
G36*
X112414703Y-79205722D02*
G01*
X112429264Y-79207882D01*
X112443543Y-79211459D01*
X112457403Y-79216418D01*
X112470710Y-79222712D01*
X112483336Y-79230280D01*
X112495159Y-79239048D01*
X112506066Y-79248934D01*
X112515952Y-79259841D01*
X112524720Y-79271664D01*
X112532288Y-79284290D01*
X112538582Y-79297597D01*
X112543541Y-79311457D01*
X112547118Y-79325736D01*
X112549278Y-79340297D01*
X112550000Y-79355000D01*
X112550000Y-79655000D01*
X112549278Y-79669703D01*
X112547118Y-79684264D01*
X112543541Y-79698543D01*
X112538582Y-79712403D01*
X112532288Y-79725710D01*
X112524720Y-79738336D01*
X112515952Y-79750159D01*
X112506066Y-79761066D01*
X112495159Y-79770952D01*
X112483336Y-79779720D01*
X112470710Y-79787288D01*
X112457403Y-79793582D01*
X112443543Y-79798541D01*
X112429264Y-79802118D01*
X112414703Y-79804278D01*
X112400000Y-79805000D01*
X110750000Y-79805000D01*
X110735297Y-79804278D01*
X110720736Y-79802118D01*
X110706457Y-79798541D01*
X110692597Y-79793582D01*
X110679290Y-79787288D01*
X110666664Y-79779720D01*
X110654841Y-79770952D01*
X110643934Y-79761066D01*
X110634048Y-79750159D01*
X110625280Y-79738336D01*
X110617712Y-79725710D01*
X110611418Y-79712403D01*
X110606459Y-79698543D01*
X110602882Y-79684264D01*
X110600722Y-79669703D01*
X110600000Y-79655000D01*
X110600000Y-79355000D01*
X110600722Y-79340297D01*
X110602882Y-79325736D01*
X110606459Y-79311457D01*
X110611418Y-79297597D01*
X110617712Y-79284290D01*
X110625280Y-79271664D01*
X110634048Y-79259841D01*
X110643934Y-79248934D01*
X110654841Y-79239048D01*
X110666664Y-79230280D01*
X110679290Y-79222712D01*
X110692597Y-79216418D01*
X110706457Y-79211459D01*
X110720736Y-79207882D01*
X110735297Y-79205722D01*
X110750000Y-79205000D01*
X112400000Y-79205000D01*
X112414703Y-79205722D01*
X112414703Y-79205722D01*
G37*
D16*
X111575000Y-79505000D03*
D13*
G36*
X107464703Y-79205722D02*
G01*
X107479264Y-79207882D01*
X107493543Y-79211459D01*
X107507403Y-79216418D01*
X107520710Y-79222712D01*
X107533336Y-79230280D01*
X107545159Y-79239048D01*
X107556066Y-79248934D01*
X107565952Y-79259841D01*
X107574720Y-79271664D01*
X107582288Y-79284290D01*
X107588582Y-79297597D01*
X107593541Y-79311457D01*
X107597118Y-79325736D01*
X107599278Y-79340297D01*
X107600000Y-79355000D01*
X107600000Y-79655000D01*
X107599278Y-79669703D01*
X107597118Y-79684264D01*
X107593541Y-79698543D01*
X107588582Y-79712403D01*
X107582288Y-79725710D01*
X107574720Y-79738336D01*
X107565952Y-79750159D01*
X107556066Y-79761066D01*
X107545159Y-79770952D01*
X107533336Y-79779720D01*
X107520710Y-79787288D01*
X107507403Y-79793582D01*
X107493543Y-79798541D01*
X107479264Y-79802118D01*
X107464703Y-79804278D01*
X107450000Y-79805000D01*
X105800000Y-79805000D01*
X105785297Y-79804278D01*
X105770736Y-79802118D01*
X105756457Y-79798541D01*
X105742597Y-79793582D01*
X105729290Y-79787288D01*
X105716664Y-79779720D01*
X105704841Y-79770952D01*
X105693934Y-79761066D01*
X105684048Y-79750159D01*
X105675280Y-79738336D01*
X105667712Y-79725710D01*
X105661418Y-79712403D01*
X105656459Y-79698543D01*
X105652882Y-79684264D01*
X105650722Y-79669703D01*
X105650000Y-79655000D01*
X105650000Y-79355000D01*
X105650722Y-79340297D01*
X105652882Y-79325736D01*
X105656459Y-79311457D01*
X105661418Y-79297597D01*
X105667712Y-79284290D01*
X105675280Y-79271664D01*
X105684048Y-79259841D01*
X105693934Y-79248934D01*
X105704841Y-79239048D01*
X105716664Y-79230280D01*
X105729290Y-79222712D01*
X105742597Y-79216418D01*
X105756457Y-79211459D01*
X105770736Y-79207882D01*
X105785297Y-79205722D01*
X105800000Y-79205000D01*
X107450000Y-79205000D01*
X107464703Y-79205722D01*
X107464703Y-79205722D01*
G37*
D16*
X106625000Y-79505000D03*
D13*
G36*
X107464703Y-77935722D02*
G01*
X107479264Y-77937882D01*
X107493543Y-77941459D01*
X107507403Y-77946418D01*
X107520710Y-77952712D01*
X107533336Y-77960280D01*
X107545159Y-77969048D01*
X107556066Y-77978934D01*
X107565952Y-77989841D01*
X107574720Y-78001664D01*
X107582288Y-78014290D01*
X107588582Y-78027597D01*
X107593541Y-78041457D01*
X107597118Y-78055736D01*
X107599278Y-78070297D01*
X107600000Y-78085000D01*
X107600000Y-78385000D01*
X107599278Y-78399703D01*
X107597118Y-78414264D01*
X107593541Y-78428543D01*
X107588582Y-78442403D01*
X107582288Y-78455710D01*
X107574720Y-78468336D01*
X107565952Y-78480159D01*
X107556066Y-78491066D01*
X107545159Y-78500952D01*
X107533336Y-78509720D01*
X107520710Y-78517288D01*
X107507403Y-78523582D01*
X107493543Y-78528541D01*
X107479264Y-78532118D01*
X107464703Y-78534278D01*
X107450000Y-78535000D01*
X105800000Y-78535000D01*
X105785297Y-78534278D01*
X105770736Y-78532118D01*
X105756457Y-78528541D01*
X105742597Y-78523582D01*
X105729290Y-78517288D01*
X105716664Y-78509720D01*
X105704841Y-78500952D01*
X105693934Y-78491066D01*
X105684048Y-78480159D01*
X105675280Y-78468336D01*
X105667712Y-78455710D01*
X105661418Y-78442403D01*
X105656459Y-78428543D01*
X105652882Y-78414264D01*
X105650722Y-78399703D01*
X105650000Y-78385000D01*
X105650000Y-78085000D01*
X105650722Y-78070297D01*
X105652882Y-78055736D01*
X105656459Y-78041457D01*
X105661418Y-78027597D01*
X105667712Y-78014290D01*
X105675280Y-78001664D01*
X105684048Y-77989841D01*
X105693934Y-77978934D01*
X105704841Y-77969048D01*
X105716664Y-77960280D01*
X105729290Y-77952712D01*
X105742597Y-77946418D01*
X105756457Y-77941459D01*
X105770736Y-77937882D01*
X105785297Y-77935722D01*
X105800000Y-77935000D01*
X107450000Y-77935000D01*
X107464703Y-77935722D01*
X107464703Y-77935722D01*
G37*
D16*
X106625000Y-78235000D03*
D13*
G36*
X107464703Y-76665722D02*
G01*
X107479264Y-76667882D01*
X107493543Y-76671459D01*
X107507403Y-76676418D01*
X107520710Y-76682712D01*
X107533336Y-76690280D01*
X107545159Y-76699048D01*
X107556066Y-76708934D01*
X107565952Y-76719841D01*
X107574720Y-76731664D01*
X107582288Y-76744290D01*
X107588582Y-76757597D01*
X107593541Y-76771457D01*
X107597118Y-76785736D01*
X107599278Y-76800297D01*
X107600000Y-76815000D01*
X107600000Y-77115000D01*
X107599278Y-77129703D01*
X107597118Y-77144264D01*
X107593541Y-77158543D01*
X107588582Y-77172403D01*
X107582288Y-77185710D01*
X107574720Y-77198336D01*
X107565952Y-77210159D01*
X107556066Y-77221066D01*
X107545159Y-77230952D01*
X107533336Y-77239720D01*
X107520710Y-77247288D01*
X107507403Y-77253582D01*
X107493543Y-77258541D01*
X107479264Y-77262118D01*
X107464703Y-77264278D01*
X107450000Y-77265000D01*
X105800000Y-77265000D01*
X105785297Y-77264278D01*
X105770736Y-77262118D01*
X105756457Y-77258541D01*
X105742597Y-77253582D01*
X105729290Y-77247288D01*
X105716664Y-77239720D01*
X105704841Y-77230952D01*
X105693934Y-77221066D01*
X105684048Y-77210159D01*
X105675280Y-77198336D01*
X105667712Y-77185710D01*
X105661418Y-77172403D01*
X105656459Y-77158543D01*
X105652882Y-77144264D01*
X105650722Y-77129703D01*
X105650000Y-77115000D01*
X105650000Y-76815000D01*
X105650722Y-76800297D01*
X105652882Y-76785736D01*
X105656459Y-76771457D01*
X105661418Y-76757597D01*
X105667712Y-76744290D01*
X105675280Y-76731664D01*
X105684048Y-76719841D01*
X105693934Y-76708934D01*
X105704841Y-76699048D01*
X105716664Y-76690280D01*
X105729290Y-76682712D01*
X105742597Y-76676418D01*
X105756457Y-76671459D01*
X105770736Y-76667882D01*
X105785297Y-76665722D01*
X105800000Y-76665000D01*
X107450000Y-76665000D01*
X107464703Y-76665722D01*
X107464703Y-76665722D01*
G37*
D16*
X106625000Y-76965000D03*
D13*
G36*
X107464703Y-75395722D02*
G01*
X107479264Y-75397882D01*
X107493543Y-75401459D01*
X107507403Y-75406418D01*
X107520710Y-75412712D01*
X107533336Y-75420280D01*
X107545159Y-75429048D01*
X107556066Y-75438934D01*
X107565952Y-75449841D01*
X107574720Y-75461664D01*
X107582288Y-75474290D01*
X107588582Y-75487597D01*
X107593541Y-75501457D01*
X107597118Y-75515736D01*
X107599278Y-75530297D01*
X107600000Y-75545000D01*
X107600000Y-75845000D01*
X107599278Y-75859703D01*
X107597118Y-75874264D01*
X107593541Y-75888543D01*
X107588582Y-75902403D01*
X107582288Y-75915710D01*
X107574720Y-75928336D01*
X107565952Y-75940159D01*
X107556066Y-75951066D01*
X107545159Y-75960952D01*
X107533336Y-75969720D01*
X107520710Y-75977288D01*
X107507403Y-75983582D01*
X107493543Y-75988541D01*
X107479264Y-75992118D01*
X107464703Y-75994278D01*
X107450000Y-75995000D01*
X105800000Y-75995000D01*
X105785297Y-75994278D01*
X105770736Y-75992118D01*
X105756457Y-75988541D01*
X105742597Y-75983582D01*
X105729290Y-75977288D01*
X105716664Y-75969720D01*
X105704841Y-75960952D01*
X105693934Y-75951066D01*
X105684048Y-75940159D01*
X105675280Y-75928336D01*
X105667712Y-75915710D01*
X105661418Y-75902403D01*
X105656459Y-75888543D01*
X105652882Y-75874264D01*
X105650722Y-75859703D01*
X105650000Y-75845000D01*
X105650000Y-75545000D01*
X105650722Y-75530297D01*
X105652882Y-75515736D01*
X105656459Y-75501457D01*
X105661418Y-75487597D01*
X105667712Y-75474290D01*
X105675280Y-75461664D01*
X105684048Y-75449841D01*
X105693934Y-75438934D01*
X105704841Y-75429048D01*
X105716664Y-75420280D01*
X105729290Y-75412712D01*
X105742597Y-75406418D01*
X105756457Y-75401459D01*
X105770736Y-75397882D01*
X105785297Y-75395722D01*
X105800000Y-75395000D01*
X107450000Y-75395000D01*
X107464703Y-75395722D01*
X107464703Y-75395722D01*
G37*
D16*
X106625000Y-75695000D03*
D17*
X104235000Y-76965000D03*
X113500000Y-77000000D03*
D18*
X114900000Y-93150000D02*
X114900000Y-86850000D01*
X114900000Y-86500000D02*
X114900000Y-86850000D01*
X125300000Y-76100000D02*
X114900000Y-86500000D01*
X129850000Y-76100000D02*
X125300000Y-76100000D01*
X130000000Y-75950000D02*
X129850000Y-76100000D01*
D19*
X110000000Y-74700000D02*
X107735000Y-76965000D01*
X114912500Y-78100000D02*
X114912500Y-76312500D01*
X113300000Y-74700000D02*
X110000000Y-74700000D01*
X114912500Y-76312500D02*
X113300000Y-74700000D01*
X107735000Y-76965000D02*
X106625000Y-76965000D01*
X111575000Y-78235000D02*
X114777500Y-78235000D01*
X114777500Y-78235000D02*
X114912500Y-78100000D01*
X106625000Y-76965000D02*
X104235000Y-76965000D01*
X114375000Y-79900000D02*
X114912500Y-79900000D01*
X111970000Y-79900000D02*
X114375000Y-79900000D01*
X111575000Y-79505000D02*
X111970000Y-79900000D01*
X104000000Y-83887500D02*
X104100000Y-83787500D01*
X104000000Y-86075000D02*
X104000000Y-83887500D01*
X104000000Y-96500000D02*
X104000000Y-94000000D01*
X110335000Y-76965000D02*
X111575000Y-76965000D01*
X109987500Y-77312500D02*
X110335000Y-76965000D01*
X109987500Y-81500000D02*
X109987500Y-77312500D01*
X113465000Y-76965000D02*
X113500000Y-77000000D01*
X111575000Y-76965000D02*
X113465000Y-76965000D01*
D18*
X111100000Y-93150000D02*
X111100000Y-86850000D01*
X108400000Y-77400000D02*
X110105000Y-75695000D01*
X110105000Y-75695000D02*
X111575000Y-75695000D01*
X111100000Y-85200000D02*
X108400000Y-82500000D01*
X111100000Y-86850000D02*
X111100000Y-85200000D01*
X108400000Y-79500000D02*
X108395000Y-79505000D01*
X108395000Y-79505000D02*
X106625000Y-79505000D01*
X108400000Y-82500000D02*
X108400000Y-79500000D01*
X108400000Y-79500000D02*
X108400000Y-77400000D01*
X111100000Y-93150000D02*
X107850000Y-93150000D01*
X104000000Y-98075000D02*
X105025000Y-98075000D01*
X105025000Y-98075000D02*
X105400000Y-97700000D01*
X105400000Y-97700000D02*
X105400000Y-94000000D01*
X106250000Y-93150000D02*
X107850000Y-93150000D01*
X105400000Y-94000000D02*
X106250000Y-93150000D01*
D19*
X109700000Y-88000000D02*
X104000000Y-88000000D01*
X109700000Y-91500000D02*
X109700000Y-88000000D01*
X109100000Y-92100000D02*
X109700000Y-91500000D01*
X104025000Y-92100000D02*
X109100000Y-92100000D01*
X104000000Y-92075000D02*
X104025000Y-92100000D01*
X105100000Y-78400000D02*
X105100000Y-80700000D01*
X105265000Y-78235000D02*
X105100000Y-78400000D01*
X109700000Y-85300000D02*
X109700000Y-88000000D01*
X105100000Y-80700000D02*
X109700000Y-85300000D01*
X106625000Y-78235000D02*
X105265000Y-78235000D01*
X107650000Y-100150000D02*
X107650000Y-101000000D01*
X106600000Y-99100000D02*
X107650000Y-100150000D01*
X103100000Y-99100000D02*
X106600000Y-99100000D01*
X102600000Y-98600000D02*
X103100000Y-99100000D01*
X104000000Y-92075000D02*
X103975000Y-92100000D01*
X102600000Y-92300000D02*
X102600000Y-98600000D01*
X102800000Y-92100000D02*
X102600000Y-92300000D01*
X103975000Y-92100000D02*
X102800000Y-92100000D01*
D20*
G36*
X116815001Y-73966343D02*
G01*
X116811686Y-74000000D01*
X116824912Y-74134283D01*
X116864081Y-74263406D01*
X116927688Y-74382407D01*
X117013289Y-74486711D01*
X117117593Y-74572312D01*
X117236594Y-74635919D01*
X117365717Y-74675088D01*
X117466353Y-74685000D01*
X117500000Y-74688314D01*
X117533647Y-74685000D01*
X125466353Y-74685000D01*
X125500000Y-74688314D01*
X125533647Y-74685000D01*
X125634283Y-74675088D01*
X125763406Y-74635919D01*
X125882407Y-74572312D01*
X125986711Y-74486711D01*
X126072312Y-74382407D01*
X126135919Y-74263406D01*
X126175088Y-74134283D01*
X126188314Y-74000000D01*
X126185000Y-73966353D01*
X126185000Y-72685000D01*
X138966495Y-72685000D01*
X139449016Y-72732312D01*
X139880930Y-72862714D01*
X140279285Y-73074524D01*
X140628914Y-73359675D01*
X140916497Y-73707303D01*
X141131086Y-74104177D01*
X141264498Y-74535161D01*
X141315001Y-75015663D01*
X141315000Y-105966495D01*
X141267688Y-106449016D01*
X141137287Y-106880927D01*
X140925480Y-107279280D01*
X140640325Y-107628914D01*
X140292697Y-107916497D01*
X139895825Y-108131085D01*
X139464834Y-108264500D01*
X138984346Y-108315000D01*
X126185000Y-108315000D01*
X126185000Y-107033647D01*
X126188314Y-107000000D01*
X126175088Y-106865717D01*
X126135919Y-106736594D01*
X126072312Y-106617593D01*
X126016840Y-106550000D01*
X127561928Y-106550000D01*
X127574188Y-106674482D01*
X127610498Y-106794180D01*
X127669463Y-106904494D01*
X127748815Y-107001185D01*
X127845506Y-107080537D01*
X127955820Y-107139502D01*
X128075518Y-107175812D01*
X128200000Y-107188072D01*
X129714250Y-107185000D01*
X129873000Y-107026250D01*
X129873000Y-105377000D01*
X130127000Y-105377000D01*
X130127000Y-107026250D01*
X130285750Y-107185000D01*
X131800000Y-107188072D01*
X131924482Y-107175812D01*
X132044180Y-107139502D01*
X132154494Y-107080537D01*
X132251185Y-107001185D01*
X132330537Y-106904494D01*
X132389502Y-106794180D01*
X132425812Y-106674482D01*
X132438072Y-106550000D01*
X132435000Y-105535750D01*
X132276250Y-105377000D01*
X130127000Y-105377000D01*
X129873000Y-105377000D01*
X127723750Y-105377000D01*
X127565000Y-105535750D01*
X127561928Y-106550000D01*
X126016840Y-106550000D01*
X125986711Y-106513289D01*
X125882407Y-106427688D01*
X125763406Y-106364081D01*
X125634283Y-106324912D01*
X125533647Y-106315000D01*
X125500000Y-106311686D01*
X125466353Y-106315000D01*
X117533647Y-106315000D01*
X117500000Y-106311686D01*
X117466353Y-106315000D01*
X117365717Y-106324912D01*
X117236594Y-106364081D01*
X117117593Y-106427688D01*
X117013289Y-106513289D01*
X116927688Y-106617593D01*
X116864081Y-106736594D01*
X116824912Y-106865717D01*
X116811686Y-107000000D01*
X116815001Y-107033657D01*
X116815000Y-108315000D01*
X104033504Y-108315000D01*
X103550984Y-108267688D01*
X103119073Y-108137287D01*
X102720720Y-107925480D01*
X102371086Y-107640325D01*
X102083503Y-107292697D01*
X101868915Y-106895825D01*
X101735500Y-106464834D01*
X101685000Y-105984346D01*
X101685000Y-103950000D01*
X127561928Y-103950000D01*
X127565000Y-104964250D01*
X127723750Y-105123000D01*
X129873000Y-105123000D01*
X129873000Y-103473750D01*
X130127000Y-103473750D01*
X130127000Y-105123000D01*
X132276250Y-105123000D01*
X132435000Y-104964250D01*
X132438072Y-103950000D01*
X132425812Y-103825518D01*
X132389502Y-103705820D01*
X132330537Y-103595506D01*
X132251185Y-103498815D01*
X132154494Y-103419463D01*
X132044180Y-103360498D01*
X131924482Y-103324188D01*
X131800000Y-103311928D01*
X130285750Y-103315000D01*
X130127000Y-103473750D01*
X129873000Y-103473750D01*
X129714250Y-103315000D01*
X128200000Y-103311928D01*
X128075518Y-103324188D01*
X127955820Y-103360498D01*
X127845506Y-103419463D01*
X127748815Y-103498815D01*
X127669463Y-103595506D01*
X127610498Y-103705820D01*
X127574188Y-103825518D01*
X127561928Y-103950000D01*
X101685000Y-103950000D01*
X101685000Y-92300000D01*
X101836324Y-92300000D01*
X101840000Y-92337323D01*
X101840001Y-98562668D01*
X101836324Y-98600000D01*
X101850998Y-98748985D01*
X101894454Y-98892246D01*
X101965026Y-99024276D01*
X101990914Y-99055820D01*
X102060000Y-99140001D01*
X102088998Y-99163799D01*
X102536196Y-99610997D01*
X102559999Y-99640001D01*
X102675724Y-99734974D01*
X102807753Y-99805546D01*
X102951014Y-99849003D01*
X103062667Y-99860000D01*
X103062675Y-99860000D01*
X103100000Y-99863676D01*
X103137325Y-99860000D01*
X106285199Y-99860000D01*
X106361928Y-99936729D01*
X106361928Y-102700000D01*
X106374188Y-102824482D01*
X106410498Y-102944180D01*
X106469463Y-103054494D01*
X106548815Y-103151185D01*
X106645506Y-103230537D01*
X106755820Y-103289502D01*
X106875518Y-103325812D01*
X107000000Y-103338072D01*
X108300000Y-103338072D01*
X108424482Y-103325812D01*
X108544180Y-103289502D01*
X108654494Y-103230537D01*
X108751185Y-103151185D01*
X108830537Y-103054494D01*
X108889502Y-102944180D01*
X108925812Y-102824482D01*
X108938072Y-102700000D01*
X115061928Y-102700000D01*
X115074188Y-102824482D01*
X115110498Y-102944180D01*
X115169463Y-103054494D01*
X115248815Y-103151185D01*
X115345506Y-103230537D01*
X115455820Y-103289502D01*
X115575518Y-103325812D01*
X115700000Y-103338072D01*
X116064250Y-103335000D01*
X116223000Y-103176250D01*
X116223000Y-101127000D01*
X116477000Y-101127000D01*
X116477000Y-103176250D01*
X116635750Y-103335000D01*
X117000000Y-103338072D01*
X117124482Y-103325812D01*
X117244180Y-103289502D01*
X117354494Y-103230537D01*
X117451185Y-103151185D01*
X117530537Y-103054494D01*
X117589502Y-102944180D01*
X117625812Y-102824482D01*
X117638072Y-102700000D01*
X117635000Y-101285750D01*
X117476250Y-101127000D01*
X116477000Y-101127000D01*
X116223000Y-101127000D01*
X115223750Y-101127000D01*
X115065000Y-101285750D01*
X115061928Y-102700000D01*
X108938072Y-102700000D01*
X108938072Y-99300000D01*
X115061928Y-99300000D01*
X115065000Y-100714250D01*
X115223750Y-100873000D01*
X116223000Y-100873000D01*
X116223000Y-98823750D01*
X116477000Y-98823750D01*
X116477000Y-100873000D01*
X117476250Y-100873000D01*
X117635000Y-100714250D01*
X117638072Y-99300000D01*
X117625812Y-99175518D01*
X117589502Y-99055820D01*
X117530537Y-98945506D01*
X117451185Y-98848815D01*
X117354494Y-98769463D01*
X117244180Y-98710498D01*
X117124482Y-98674188D01*
X117000000Y-98661928D01*
X116635750Y-98665000D01*
X116477000Y-98823750D01*
X116223000Y-98823750D01*
X116064250Y-98665000D01*
X115700000Y-98661928D01*
X115575518Y-98674188D01*
X115455820Y-98710498D01*
X115345506Y-98769463D01*
X115248815Y-98848815D01*
X115169463Y-98945506D01*
X115110498Y-99055820D01*
X115074188Y-99175518D01*
X115061928Y-99300000D01*
X108938072Y-99300000D01*
X108925812Y-99175518D01*
X108889502Y-99055820D01*
X108830537Y-98945506D01*
X108751185Y-98848815D01*
X108654494Y-98769463D01*
X108544180Y-98710498D01*
X108424482Y-98674188D01*
X108300000Y-98661928D01*
X107236729Y-98661928D01*
X107163804Y-98589002D01*
X107140001Y-98559999D01*
X107024276Y-98465026D01*
X106892247Y-98394454D01*
X106748986Y-98350997D01*
X106637333Y-98340000D01*
X106637322Y-98340000D01*
X106600000Y-98336324D01*
X106562678Y-98340000D01*
X106015190Y-98340000D01*
X106028817Y-98328817D01*
X106139411Y-98194059D01*
X106221589Y-98040313D01*
X106272195Y-97873490D01*
X106285000Y-97743477D01*
X106285000Y-97743467D01*
X106289281Y-97700001D01*
X106285000Y-97656534D01*
X106285000Y-94366578D01*
X106616579Y-94035000D01*
X109965375Y-94035000D01*
X109974188Y-94124482D01*
X110010498Y-94244180D01*
X110069463Y-94354494D01*
X110148815Y-94451185D01*
X110245506Y-94530537D01*
X110355820Y-94589502D01*
X110475518Y-94625812D01*
X110600000Y-94638072D01*
X111600000Y-94638072D01*
X111724482Y-94625812D01*
X111844180Y-94589502D01*
X111954494Y-94530537D01*
X112051185Y-94451185D01*
X112130537Y-94354494D01*
X112189502Y-94244180D01*
X112225812Y-94124482D01*
X112238072Y-94000000D01*
X112238072Y-92300000D01*
X112225812Y-92175518D01*
X112189502Y-92055820D01*
X112130537Y-91945506D01*
X112051185Y-91848815D01*
X111985000Y-91794499D01*
X111985000Y-88205501D01*
X112051185Y-88151185D01*
X112130537Y-88054494D01*
X112189502Y-87944180D01*
X112225812Y-87824482D01*
X112238072Y-87700000D01*
X112238072Y-86000000D01*
X113761928Y-86000000D01*
X113761928Y-87700000D01*
X113774188Y-87824482D01*
X113810498Y-87944180D01*
X113869463Y-88054494D01*
X113948815Y-88151185D01*
X114015001Y-88205502D01*
X114015000Y-91794498D01*
X113948815Y-91848815D01*
X113869463Y-91945506D01*
X113810498Y-92055820D01*
X113774188Y-92175518D01*
X113761928Y-92300000D01*
X113761928Y-94000000D01*
X113774188Y-94124482D01*
X113810498Y-94244180D01*
X113869463Y-94354494D01*
X113948815Y-94451185D01*
X114045506Y-94530537D01*
X114155820Y-94589502D01*
X114275518Y-94625812D01*
X114400000Y-94638072D01*
X115400000Y-94638072D01*
X115524482Y-94625812D01*
X115644180Y-94589502D01*
X115754494Y-94530537D01*
X115851185Y-94451185D01*
X115930537Y-94354494D01*
X115989502Y-94244180D01*
X116025812Y-94124482D01*
X116038072Y-94000000D01*
X116038072Y-92300000D01*
X116025812Y-92175518D01*
X115989502Y-92055820D01*
X115930537Y-91945506D01*
X115851185Y-91848815D01*
X115785000Y-91794499D01*
X115785000Y-88205501D01*
X115851185Y-88151185D01*
X115930537Y-88054494D01*
X115989502Y-87944180D01*
X116025812Y-87824482D01*
X116038072Y-87700000D01*
X116038072Y-86613506D01*
X125666579Y-76985000D01*
X127561928Y-76985000D01*
X127561928Y-77250000D01*
X127574188Y-77374482D01*
X127610498Y-77494180D01*
X127669463Y-77604494D01*
X127748815Y-77701185D01*
X127845506Y-77780537D01*
X127955820Y-77839502D01*
X128075518Y-77875812D01*
X128200000Y-77888072D01*
X131800000Y-77888072D01*
X131924482Y-77875812D01*
X132044180Y-77839502D01*
X132154494Y-77780537D01*
X132251185Y-77701185D01*
X132330537Y-77604494D01*
X132389502Y-77494180D01*
X132425812Y-77374482D01*
X132438072Y-77250000D01*
X132438072Y-74650000D01*
X132425812Y-74525518D01*
X132389502Y-74405820D01*
X132330537Y-74295506D01*
X132251185Y-74198815D01*
X132154494Y-74119463D01*
X132044180Y-74060498D01*
X131924482Y-74024188D01*
X131800000Y-74011928D01*
X128200000Y-74011928D01*
X128075518Y-74024188D01*
X127955820Y-74060498D01*
X127845506Y-74119463D01*
X127748815Y-74198815D01*
X127669463Y-74295506D01*
X127610498Y-74405820D01*
X127574188Y-74525518D01*
X127561928Y-74650000D01*
X127561928Y-75215000D01*
X125343466Y-75215000D01*
X125299999Y-75210719D01*
X125256533Y-75215000D01*
X125256523Y-75215000D01*
X125126510Y-75227805D01*
X124959687Y-75278411D01*
X124805941Y-75360589D01*
X124805939Y-75360590D01*
X124805940Y-75360590D01*
X124704953Y-75443468D01*
X124704951Y-75443470D01*
X124671183Y-75471183D01*
X124643470Y-75504951D01*
X114786494Y-85361928D01*
X114400000Y-85361928D01*
X114275518Y-85374188D01*
X114155820Y-85410498D01*
X114045506Y-85469463D01*
X113948815Y-85548815D01*
X113869463Y-85645506D01*
X113810498Y-85755820D01*
X113774188Y-85875518D01*
X113761928Y-86000000D01*
X112238072Y-86000000D01*
X112225812Y-85875518D01*
X112189502Y-85755820D01*
X112130537Y-85645506D01*
X112051185Y-85548815D01*
X111985000Y-85494499D01*
X111985000Y-85243469D01*
X111989281Y-85200000D01*
X111985000Y-85156531D01*
X111985000Y-85156523D01*
X111972195Y-85026510D01*
X111921589Y-84859687D01*
X111921589Y-84859686D01*
X111839411Y-84705941D01*
X111756532Y-84604953D01*
X111756530Y-84604951D01*
X111728817Y-84571183D01*
X111695049Y-84543470D01*
X109764202Y-82612624D01*
X109768750Y-82613072D01*
X110206250Y-82613072D01*
X110373408Y-82596608D01*
X110534142Y-82547850D01*
X110682275Y-82468671D01*
X110812115Y-82362115D01*
X110918671Y-82232275D01*
X110997850Y-82084142D01*
X111046608Y-81923408D01*
X111063072Y-81756250D01*
X111063072Y-81243750D01*
X111046608Y-81076592D01*
X110997850Y-80915858D01*
X110918671Y-80767725D01*
X110812115Y-80637885D01*
X110747500Y-80584857D01*
X110747500Y-80442826D01*
X110750000Y-80443072D01*
X111433741Y-80443072D01*
X111545724Y-80534974D01*
X111677753Y-80605546D01*
X111821014Y-80649003D01*
X111932667Y-80660000D01*
X111932676Y-80660000D01*
X111969999Y-80663676D01*
X112007322Y-80660000D01*
X114004082Y-80660000D01*
X114087885Y-80762115D01*
X114217725Y-80868671D01*
X114365858Y-80947850D01*
X114526592Y-80996608D01*
X114693750Y-81013072D01*
X115131250Y-81013072D01*
X115298408Y-80996608D01*
X115459142Y-80947850D01*
X115607275Y-80868671D01*
X115628930Y-80850900D01*
X115695506Y-80905537D01*
X115805820Y-80964502D01*
X115925518Y-81000812D01*
X116050000Y-81013072D01*
X116201750Y-81010000D01*
X116360500Y-80851250D01*
X116360500Y-80027000D01*
X116614500Y-80027000D01*
X116614500Y-80851250D01*
X116773250Y-81010000D01*
X116925000Y-81013072D01*
X117049482Y-81000812D01*
X117169180Y-80964502D01*
X117279494Y-80905537D01*
X117376185Y-80826185D01*
X117455537Y-80729494D01*
X117514502Y-80619180D01*
X117550812Y-80499482D01*
X117563072Y-80375000D01*
X117560000Y-80185750D01*
X117401250Y-80027000D01*
X116614500Y-80027000D01*
X116360500Y-80027000D01*
X116340500Y-80027000D01*
X116340500Y-79773000D01*
X116360500Y-79773000D01*
X116360500Y-78227000D01*
X116614500Y-78227000D01*
X116614500Y-79773000D01*
X117401250Y-79773000D01*
X117560000Y-79614250D01*
X117563072Y-79425000D01*
X117550812Y-79300518D01*
X117514502Y-79180820D01*
X117455537Y-79070506D01*
X117397674Y-79000000D01*
X117455537Y-78929494D01*
X117514502Y-78819180D01*
X117550812Y-78699482D01*
X117563072Y-78575000D01*
X117560000Y-78385750D01*
X117401250Y-78227000D01*
X116614500Y-78227000D01*
X116360500Y-78227000D01*
X116340500Y-78227000D01*
X116340500Y-77973000D01*
X116360500Y-77973000D01*
X116360500Y-77148750D01*
X116614500Y-77148750D01*
X116614500Y-77973000D01*
X117401250Y-77973000D01*
X117560000Y-77814250D01*
X117563072Y-77625000D01*
X117550812Y-77500518D01*
X117514502Y-77380820D01*
X117455537Y-77270506D01*
X117376185Y-77173815D01*
X117279494Y-77094463D01*
X117169180Y-77035498D01*
X117049482Y-76999188D01*
X116925000Y-76986928D01*
X116773250Y-76990000D01*
X116614500Y-77148750D01*
X116360500Y-77148750D01*
X116201750Y-76990000D01*
X116050000Y-76986928D01*
X115925518Y-76999188D01*
X115805820Y-77035498D01*
X115695506Y-77094463D01*
X115672500Y-77113343D01*
X115672500Y-76349822D01*
X115676176Y-76312499D01*
X115672500Y-76275176D01*
X115672500Y-76275167D01*
X115661503Y-76163514D01*
X115618046Y-76020253D01*
X115547474Y-75888224D01*
X115452501Y-75772499D01*
X115423503Y-75748701D01*
X113863804Y-74189003D01*
X113840001Y-74159999D01*
X113724276Y-74065026D01*
X113592247Y-73994454D01*
X113448986Y-73950997D01*
X113337333Y-73940000D01*
X113337322Y-73940000D01*
X113300000Y-73936324D01*
X113262678Y-73940000D01*
X110037325Y-73940000D01*
X110000000Y-73936324D01*
X109962675Y-73940000D01*
X109962667Y-73940000D01*
X109851014Y-73950997D01*
X109707753Y-73994454D01*
X109575724Y-74065026D01*
X109459999Y-74159999D01*
X109436201Y-74188997D01*
X108237366Y-75387832D01*
X108225812Y-75270518D01*
X108189502Y-75150820D01*
X108130537Y-75040506D01*
X108051185Y-74943815D01*
X107954494Y-74864463D01*
X107844180Y-74805498D01*
X107724482Y-74769188D01*
X107600000Y-74756928D01*
X106910750Y-74760000D01*
X106752000Y-74918750D01*
X106752000Y-75568000D01*
X106772000Y-75568000D01*
X106772000Y-75822000D01*
X106752000Y-75822000D01*
X106752000Y-75842000D01*
X106498000Y-75842000D01*
X106498000Y-75822000D01*
X105173750Y-75822000D01*
X105015000Y-75980750D01*
X105011928Y-75995000D01*
X105024188Y-76119482D01*
X105050130Y-76205000D01*
X104938711Y-76205000D01*
X104894774Y-76161063D01*
X104725256Y-76047795D01*
X104536898Y-75969774D01*
X104336939Y-75930000D01*
X104133061Y-75930000D01*
X103933102Y-75969774D01*
X103744744Y-76047795D01*
X103575226Y-76161063D01*
X103431063Y-76305226D01*
X103317795Y-76474744D01*
X103239774Y-76663102D01*
X103200000Y-76863061D01*
X103200000Y-77066939D01*
X103239774Y-77266898D01*
X103317795Y-77455256D01*
X103431063Y-77624774D01*
X103575226Y-77768937D01*
X103744744Y-77882205D01*
X103933102Y-77960226D01*
X104133061Y-78000000D01*
X104336939Y-78000000D01*
X104466205Y-77974288D01*
X104465026Y-77975724D01*
X104411333Y-78076176D01*
X104394454Y-78107754D01*
X104350997Y-78251015D01*
X104340000Y-78362668D01*
X104340000Y-78362678D01*
X104336324Y-78400000D01*
X104340000Y-78437323D01*
X104340001Y-80662668D01*
X104336324Y-80700000D01*
X104350998Y-80848985D01*
X104394454Y-80992246D01*
X104465026Y-81124276D01*
X104476719Y-81138523D01*
X104385750Y-81140000D01*
X104227000Y-81298750D01*
X104227000Y-82085500D01*
X105051250Y-82085500D01*
X105210000Y-81926750D01*
X105210832Y-81885634D01*
X108940000Y-85614803D01*
X108940001Y-87240000D01*
X105216383Y-87240000D01*
X105138405Y-87094114D01*
X105091943Y-87037500D01*
X105138405Y-86980886D01*
X105220472Y-86827350D01*
X105271008Y-86660754D01*
X105288072Y-86487500D01*
X105288072Y-85662500D01*
X105271008Y-85489246D01*
X105220472Y-85322650D01*
X105138405Y-85169114D01*
X105027962Y-85034538D01*
X104893386Y-84924095D01*
X104760000Y-84852798D01*
X104760000Y-84757303D01*
X104832275Y-84718671D01*
X104962115Y-84612115D01*
X105068671Y-84482275D01*
X105147850Y-84334142D01*
X105196608Y-84173408D01*
X105213072Y-84006250D01*
X105213072Y-83568750D01*
X105196608Y-83401592D01*
X105147850Y-83240858D01*
X105068671Y-83092725D01*
X105050900Y-83071070D01*
X105105537Y-83004494D01*
X105164502Y-82894180D01*
X105200812Y-82774482D01*
X105213072Y-82650000D01*
X105210000Y-82498250D01*
X105051250Y-82339500D01*
X104227000Y-82339500D01*
X104227000Y-82359500D01*
X103973000Y-82359500D01*
X103973000Y-82339500D01*
X103148750Y-82339500D01*
X102990000Y-82498250D01*
X102986928Y-82650000D01*
X102999188Y-82774482D01*
X103035498Y-82894180D01*
X103094463Y-83004494D01*
X103149100Y-83071070D01*
X103131329Y-83092725D01*
X103052150Y-83240858D01*
X103003392Y-83401592D01*
X102986928Y-83568750D01*
X102986928Y-84006250D01*
X103003392Y-84173408D01*
X103052150Y-84334142D01*
X103131329Y-84482275D01*
X103237885Y-84612115D01*
X103240001Y-84613851D01*
X103240001Y-84852798D01*
X103106614Y-84924095D01*
X102972038Y-85034538D01*
X102861595Y-85169114D01*
X102779528Y-85322650D01*
X102728992Y-85489246D01*
X102711928Y-85662500D01*
X102711928Y-86487500D01*
X102728992Y-86660754D01*
X102779528Y-86827350D01*
X102861595Y-86980886D01*
X102908057Y-87037500D01*
X102861595Y-87094114D01*
X102779528Y-87247650D01*
X102728992Y-87414246D01*
X102711928Y-87587500D01*
X102711928Y-88412500D01*
X102728992Y-88585754D01*
X102779528Y-88752350D01*
X102861595Y-88905886D01*
X102972038Y-89040462D01*
X103106614Y-89150905D01*
X103260150Y-89232972D01*
X103426746Y-89283508D01*
X103600000Y-89300572D01*
X104400000Y-89300572D01*
X104573254Y-89283508D01*
X104739850Y-89232972D01*
X104893386Y-89150905D01*
X105027962Y-89040462D01*
X105138405Y-88905886D01*
X105216383Y-88760000D01*
X108940001Y-88760000D01*
X108940000Y-91185198D01*
X108785199Y-91340000D01*
X105225735Y-91340000D01*
X105220472Y-91322650D01*
X105138405Y-91169114D01*
X105027962Y-91034538D01*
X104893386Y-90924095D01*
X104739850Y-90842028D01*
X104573254Y-90791492D01*
X104400000Y-90774428D01*
X103600000Y-90774428D01*
X103426746Y-90791492D01*
X103260150Y-90842028D01*
X103106614Y-90924095D01*
X102972038Y-91034538D01*
X102861595Y-91169114D01*
X102779528Y-91322650D01*
X102774622Y-91338823D01*
X102762675Y-91340000D01*
X102762667Y-91340000D01*
X102651014Y-91350997D01*
X102507753Y-91394454D01*
X102375724Y-91465026D01*
X102259999Y-91559999D01*
X102236196Y-91589003D01*
X102089003Y-91736196D01*
X102059999Y-91759999D01*
X102020809Y-91807753D01*
X101965026Y-91875724D01*
X101924782Y-91951015D01*
X101894454Y-92007754D01*
X101850997Y-92151015D01*
X101840000Y-92262668D01*
X101840000Y-92262678D01*
X101836324Y-92300000D01*
X101685000Y-92300000D01*
X101685000Y-81775000D01*
X102986928Y-81775000D01*
X102990000Y-81926750D01*
X103148750Y-82085500D01*
X103973000Y-82085500D01*
X103973000Y-81298750D01*
X103814250Y-81140000D01*
X103625000Y-81136928D01*
X103500518Y-81149188D01*
X103380820Y-81185498D01*
X103270506Y-81244463D01*
X103173815Y-81323815D01*
X103094463Y-81420506D01*
X103035498Y-81530820D01*
X102999188Y-81650518D01*
X102986928Y-81775000D01*
X101685000Y-81775000D01*
X101685000Y-75395000D01*
X105011928Y-75395000D01*
X105015000Y-75409250D01*
X105173750Y-75568000D01*
X106498000Y-75568000D01*
X106498000Y-74918750D01*
X106339250Y-74760000D01*
X105650000Y-74756928D01*
X105525518Y-74769188D01*
X105405820Y-74805498D01*
X105295506Y-74864463D01*
X105198815Y-74943815D01*
X105119463Y-75040506D01*
X105060498Y-75150820D01*
X105024188Y-75270518D01*
X105011928Y-75395000D01*
X101685000Y-75395000D01*
X101685000Y-75033505D01*
X101732312Y-74550984D01*
X101862714Y-74119070D01*
X102074524Y-73720715D01*
X102359675Y-73371086D01*
X102707303Y-73083503D01*
X103104177Y-72868914D01*
X103535161Y-72735502D01*
X104015654Y-72685000D01*
X116815000Y-72685000D01*
X116815001Y-73966343D01*
X116815001Y-73966343D01*
G37*
X116815001Y-73966343D02*
X116811686Y-74000000D01*
X116824912Y-74134283D01*
X116864081Y-74263406D01*
X116927688Y-74382407D01*
X117013289Y-74486711D01*
X117117593Y-74572312D01*
X117236594Y-74635919D01*
X117365717Y-74675088D01*
X117466353Y-74685000D01*
X117500000Y-74688314D01*
X117533647Y-74685000D01*
X125466353Y-74685000D01*
X125500000Y-74688314D01*
X125533647Y-74685000D01*
X125634283Y-74675088D01*
X125763406Y-74635919D01*
X125882407Y-74572312D01*
X125986711Y-74486711D01*
X126072312Y-74382407D01*
X126135919Y-74263406D01*
X126175088Y-74134283D01*
X126188314Y-74000000D01*
X126185000Y-73966353D01*
X126185000Y-72685000D01*
X138966495Y-72685000D01*
X139449016Y-72732312D01*
X139880930Y-72862714D01*
X140279285Y-73074524D01*
X140628914Y-73359675D01*
X140916497Y-73707303D01*
X141131086Y-74104177D01*
X141264498Y-74535161D01*
X141315001Y-75015663D01*
X141315000Y-105966495D01*
X141267688Y-106449016D01*
X141137287Y-106880927D01*
X140925480Y-107279280D01*
X140640325Y-107628914D01*
X140292697Y-107916497D01*
X139895825Y-108131085D01*
X139464834Y-108264500D01*
X138984346Y-108315000D01*
X126185000Y-108315000D01*
X126185000Y-107033647D01*
X126188314Y-107000000D01*
X126175088Y-106865717D01*
X126135919Y-106736594D01*
X126072312Y-106617593D01*
X126016840Y-106550000D01*
X127561928Y-106550000D01*
X127574188Y-106674482D01*
X127610498Y-106794180D01*
X127669463Y-106904494D01*
X127748815Y-107001185D01*
X127845506Y-107080537D01*
X127955820Y-107139502D01*
X128075518Y-107175812D01*
X128200000Y-107188072D01*
X129714250Y-107185000D01*
X129873000Y-107026250D01*
X129873000Y-105377000D01*
X130127000Y-105377000D01*
X130127000Y-107026250D01*
X130285750Y-107185000D01*
X131800000Y-107188072D01*
X131924482Y-107175812D01*
X132044180Y-107139502D01*
X132154494Y-107080537D01*
X132251185Y-107001185D01*
X132330537Y-106904494D01*
X132389502Y-106794180D01*
X132425812Y-106674482D01*
X132438072Y-106550000D01*
X132435000Y-105535750D01*
X132276250Y-105377000D01*
X130127000Y-105377000D01*
X129873000Y-105377000D01*
X127723750Y-105377000D01*
X127565000Y-105535750D01*
X127561928Y-106550000D01*
X126016840Y-106550000D01*
X125986711Y-106513289D01*
X125882407Y-106427688D01*
X125763406Y-106364081D01*
X125634283Y-106324912D01*
X125533647Y-106315000D01*
X125500000Y-106311686D01*
X125466353Y-106315000D01*
X117533647Y-106315000D01*
X117500000Y-106311686D01*
X117466353Y-106315000D01*
X117365717Y-106324912D01*
X117236594Y-106364081D01*
X117117593Y-106427688D01*
X117013289Y-106513289D01*
X116927688Y-106617593D01*
X116864081Y-106736594D01*
X116824912Y-106865717D01*
X116811686Y-107000000D01*
X116815001Y-107033657D01*
X116815000Y-108315000D01*
X104033504Y-108315000D01*
X103550984Y-108267688D01*
X103119073Y-108137287D01*
X102720720Y-107925480D01*
X102371086Y-107640325D01*
X102083503Y-107292697D01*
X101868915Y-106895825D01*
X101735500Y-106464834D01*
X101685000Y-105984346D01*
X101685000Y-103950000D01*
X127561928Y-103950000D01*
X127565000Y-104964250D01*
X127723750Y-105123000D01*
X129873000Y-105123000D01*
X129873000Y-103473750D01*
X130127000Y-103473750D01*
X130127000Y-105123000D01*
X132276250Y-105123000D01*
X132435000Y-104964250D01*
X132438072Y-103950000D01*
X132425812Y-103825518D01*
X132389502Y-103705820D01*
X132330537Y-103595506D01*
X132251185Y-103498815D01*
X132154494Y-103419463D01*
X132044180Y-103360498D01*
X131924482Y-103324188D01*
X131800000Y-103311928D01*
X130285750Y-103315000D01*
X130127000Y-103473750D01*
X129873000Y-103473750D01*
X129714250Y-103315000D01*
X128200000Y-103311928D01*
X128075518Y-103324188D01*
X127955820Y-103360498D01*
X127845506Y-103419463D01*
X127748815Y-103498815D01*
X127669463Y-103595506D01*
X127610498Y-103705820D01*
X127574188Y-103825518D01*
X127561928Y-103950000D01*
X101685000Y-103950000D01*
X101685000Y-92300000D01*
X101836324Y-92300000D01*
X101840000Y-92337323D01*
X101840001Y-98562668D01*
X101836324Y-98600000D01*
X101850998Y-98748985D01*
X101894454Y-98892246D01*
X101965026Y-99024276D01*
X101990914Y-99055820D01*
X102060000Y-99140001D01*
X102088998Y-99163799D01*
X102536196Y-99610997D01*
X102559999Y-99640001D01*
X102675724Y-99734974D01*
X102807753Y-99805546D01*
X102951014Y-99849003D01*
X103062667Y-99860000D01*
X103062675Y-99860000D01*
X103100000Y-99863676D01*
X103137325Y-99860000D01*
X106285199Y-99860000D01*
X106361928Y-99936729D01*
X106361928Y-102700000D01*
X106374188Y-102824482D01*
X106410498Y-102944180D01*
X106469463Y-103054494D01*
X106548815Y-103151185D01*
X106645506Y-103230537D01*
X106755820Y-103289502D01*
X106875518Y-103325812D01*
X107000000Y-103338072D01*
X108300000Y-103338072D01*
X108424482Y-103325812D01*
X108544180Y-103289502D01*
X108654494Y-103230537D01*
X108751185Y-103151185D01*
X108830537Y-103054494D01*
X108889502Y-102944180D01*
X108925812Y-102824482D01*
X108938072Y-102700000D01*
X115061928Y-102700000D01*
X115074188Y-102824482D01*
X115110498Y-102944180D01*
X115169463Y-103054494D01*
X115248815Y-103151185D01*
X115345506Y-103230537D01*
X115455820Y-103289502D01*
X115575518Y-103325812D01*
X115700000Y-103338072D01*
X116064250Y-103335000D01*
X116223000Y-103176250D01*
X116223000Y-101127000D01*
X116477000Y-101127000D01*
X116477000Y-103176250D01*
X116635750Y-103335000D01*
X117000000Y-103338072D01*
X117124482Y-103325812D01*
X117244180Y-103289502D01*
X117354494Y-103230537D01*
X117451185Y-103151185D01*
X117530537Y-103054494D01*
X117589502Y-102944180D01*
X117625812Y-102824482D01*
X117638072Y-102700000D01*
X117635000Y-101285750D01*
X117476250Y-101127000D01*
X116477000Y-101127000D01*
X116223000Y-101127000D01*
X115223750Y-101127000D01*
X115065000Y-101285750D01*
X115061928Y-102700000D01*
X108938072Y-102700000D01*
X108938072Y-99300000D01*
X115061928Y-99300000D01*
X115065000Y-100714250D01*
X115223750Y-100873000D01*
X116223000Y-100873000D01*
X116223000Y-98823750D01*
X116477000Y-98823750D01*
X116477000Y-100873000D01*
X117476250Y-100873000D01*
X117635000Y-100714250D01*
X117638072Y-99300000D01*
X117625812Y-99175518D01*
X117589502Y-99055820D01*
X117530537Y-98945506D01*
X117451185Y-98848815D01*
X117354494Y-98769463D01*
X117244180Y-98710498D01*
X117124482Y-98674188D01*
X117000000Y-98661928D01*
X116635750Y-98665000D01*
X116477000Y-98823750D01*
X116223000Y-98823750D01*
X116064250Y-98665000D01*
X115700000Y-98661928D01*
X115575518Y-98674188D01*
X115455820Y-98710498D01*
X115345506Y-98769463D01*
X115248815Y-98848815D01*
X115169463Y-98945506D01*
X115110498Y-99055820D01*
X115074188Y-99175518D01*
X115061928Y-99300000D01*
X108938072Y-99300000D01*
X108925812Y-99175518D01*
X108889502Y-99055820D01*
X108830537Y-98945506D01*
X108751185Y-98848815D01*
X108654494Y-98769463D01*
X108544180Y-98710498D01*
X108424482Y-98674188D01*
X108300000Y-98661928D01*
X107236729Y-98661928D01*
X107163804Y-98589002D01*
X107140001Y-98559999D01*
X107024276Y-98465026D01*
X106892247Y-98394454D01*
X106748986Y-98350997D01*
X106637333Y-98340000D01*
X106637322Y-98340000D01*
X106600000Y-98336324D01*
X106562678Y-98340000D01*
X106015190Y-98340000D01*
X106028817Y-98328817D01*
X106139411Y-98194059D01*
X106221589Y-98040313D01*
X106272195Y-97873490D01*
X106285000Y-97743477D01*
X106285000Y-97743467D01*
X106289281Y-97700001D01*
X106285000Y-97656534D01*
X106285000Y-94366578D01*
X106616579Y-94035000D01*
X109965375Y-94035000D01*
X109974188Y-94124482D01*
X110010498Y-94244180D01*
X110069463Y-94354494D01*
X110148815Y-94451185D01*
X110245506Y-94530537D01*
X110355820Y-94589502D01*
X110475518Y-94625812D01*
X110600000Y-94638072D01*
X111600000Y-94638072D01*
X111724482Y-94625812D01*
X111844180Y-94589502D01*
X111954494Y-94530537D01*
X112051185Y-94451185D01*
X112130537Y-94354494D01*
X112189502Y-94244180D01*
X112225812Y-94124482D01*
X112238072Y-94000000D01*
X112238072Y-92300000D01*
X112225812Y-92175518D01*
X112189502Y-92055820D01*
X112130537Y-91945506D01*
X112051185Y-91848815D01*
X111985000Y-91794499D01*
X111985000Y-88205501D01*
X112051185Y-88151185D01*
X112130537Y-88054494D01*
X112189502Y-87944180D01*
X112225812Y-87824482D01*
X112238072Y-87700000D01*
X112238072Y-86000000D01*
X113761928Y-86000000D01*
X113761928Y-87700000D01*
X113774188Y-87824482D01*
X113810498Y-87944180D01*
X113869463Y-88054494D01*
X113948815Y-88151185D01*
X114015001Y-88205502D01*
X114015000Y-91794498D01*
X113948815Y-91848815D01*
X113869463Y-91945506D01*
X113810498Y-92055820D01*
X113774188Y-92175518D01*
X113761928Y-92300000D01*
X113761928Y-94000000D01*
X113774188Y-94124482D01*
X113810498Y-94244180D01*
X113869463Y-94354494D01*
X113948815Y-94451185D01*
X114045506Y-94530537D01*
X114155820Y-94589502D01*
X114275518Y-94625812D01*
X114400000Y-94638072D01*
X115400000Y-94638072D01*
X115524482Y-94625812D01*
X115644180Y-94589502D01*
X115754494Y-94530537D01*
X115851185Y-94451185D01*
X115930537Y-94354494D01*
X115989502Y-94244180D01*
X116025812Y-94124482D01*
X116038072Y-94000000D01*
X116038072Y-92300000D01*
X116025812Y-92175518D01*
X115989502Y-92055820D01*
X115930537Y-91945506D01*
X115851185Y-91848815D01*
X115785000Y-91794499D01*
X115785000Y-88205501D01*
X115851185Y-88151185D01*
X115930537Y-88054494D01*
X115989502Y-87944180D01*
X116025812Y-87824482D01*
X116038072Y-87700000D01*
X116038072Y-86613506D01*
X125666579Y-76985000D01*
X127561928Y-76985000D01*
X127561928Y-77250000D01*
X127574188Y-77374482D01*
X127610498Y-77494180D01*
X127669463Y-77604494D01*
X127748815Y-77701185D01*
X127845506Y-77780537D01*
X127955820Y-77839502D01*
X128075518Y-77875812D01*
X128200000Y-77888072D01*
X131800000Y-77888072D01*
X131924482Y-77875812D01*
X132044180Y-77839502D01*
X132154494Y-77780537D01*
X132251185Y-77701185D01*
X132330537Y-77604494D01*
X132389502Y-77494180D01*
X132425812Y-77374482D01*
X132438072Y-77250000D01*
X132438072Y-74650000D01*
X132425812Y-74525518D01*
X132389502Y-74405820D01*
X132330537Y-74295506D01*
X132251185Y-74198815D01*
X132154494Y-74119463D01*
X132044180Y-74060498D01*
X131924482Y-74024188D01*
X131800000Y-74011928D01*
X128200000Y-74011928D01*
X128075518Y-74024188D01*
X127955820Y-74060498D01*
X127845506Y-74119463D01*
X127748815Y-74198815D01*
X127669463Y-74295506D01*
X127610498Y-74405820D01*
X127574188Y-74525518D01*
X127561928Y-74650000D01*
X127561928Y-75215000D01*
X125343466Y-75215000D01*
X125299999Y-75210719D01*
X125256533Y-75215000D01*
X125256523Y-75215000D01*
X125126510Y-75227805D01*
X124959687Y-75278411D01*
X124805941Y-75360589D01*
X124805939Y-75360590D01*
X124805940Y-75360590D01*
X124704953Y-75443468D01*
X124704951Y-75443470D01*
X124671183Y-75471183D01*
X124643470Y-75504951D01*
X114786494Y-85361928D01*
X114400000Y-85361928D01*
X114275518Y-85374188D01*
X114155820Y-85410498D01*
X114045506Y-85469463D01*
X113948815Y-85548815D01*
X113869463Y-85645506D01*
X113810498Y-85755820D01*
X113774188Y-85875518D01*
X113761928Y-86000000D01*
X112238072Y-86000000D01*
X112225812Y-85875518D01*
X112189502Y-85755820D01*
X112130537Y-85645506D01*
X112051185Y-85548815D01*
X111985000Y-85494499D01*
X111985000Y-85243469D01*
X111989281Y-85200000D01*
X111985000Y-85156531D01*
X111985000Y-85156523D01*
X111972195Y-85026510D01*
X111921589Y-84859687D01*
X111921589Y-84859686D01*
X111839411Y-84705941D01*
X111756532Y-84604953D01*
X111756530Y-84604951D01*
X111728817Y-84571183D01*
X111695049Y-84543470D01*
X109764202Y-82612624D01*
X109768750Y-82613072D01*
X110206250Y-82613072D01*
X110373408Y-82596608D01*
X110534142Y-82547850D01*
X110682275Y-82468671D01*
X110812115Y-82362115D01*
X110918671Y-82232275D01*
X110997850Y-82084142D01*
X111046608Y-81923408D01*
X111063072Y-81756250D01*
X111063072Y-81243750D01*
X111046608Y-81076592D01*
X110997850Y-80915858D01*
X110918671Y-80767725D01*
X110812115Y-80637885D01*
X110747500Y-80584857D01*
X110747500Y-80442826D01*
X110750000Y-80443072D01*
X111433741Y-80443072D01*
X111545724Y-80534974D01*
X111677753Y-80605546D01*
X111821014Y-80649003D01*
X111932667Y-80660000D01*
X111932676Y-80660000D01*
X111969999Y-80663676D01*
X112007322Y-80660000D01*
X114004082Y-80660000D01*
X114087885Y-80762115D01*
X114217725Y-80868671D01*
X114365858Y-80947850D01*
X114526592Y-80996608D01*
X114693750Y-81013072D01*
X115131250Y-81013072D01*
X115298408Y-80996608D01*
X115459142Y-80947850D01*
X115607275Y-80868671D01*
X115628930Y-80850900D01*
X115695506Y-80905537D01*
X115805820Y-80964502D01*
X115925518Y-81000812D01*
X116050000Y-81013072D01*
X116201750Y-81010000D01*
X116360500Y-80851250D01*
X116360500Y-80027000D01*
X116614500Y-80027000D01*
X116614500Y-80851250D01*
X116773250Y-81010000D01*
X116925000Y-81013072D01*
X117049482Y-81000812D01*
X117169180Y-80964502D01*
X117279494Y-80905537D01*
X117376185Y-80826185D01*
X117455537Y-80729494D01*
X117514502Y-80619180D01*
X117550812Y-80499482D01*
X117563072Y-80375000D01*
X117560000Y-80185750D01*
X117401250Y-80027000D01*
X116614500Y-80027000D01*
X116360500Y-80027000D01*
X116340500Y-80027000D01*
X116340500Y-79773000D01*
X116360500Y-79773000D01*
X116360500Y-78227000D01*
X116614500Y-78227000D01*
X116614500Y-79773000D01*
X117401250Y-79773000D01*
X117560000Y-79614250D01*
X117563072Y-79425000D01*
X117550812Y-79300518D01*
X117514502Y-79180820D01*
X117455537Y-79070506D01*
X117397674Y-79000000D01*
X117455537Y-78929494D01*
X117514502Y-78819180D01*
X117550812Y-78699482D01*
X117563072Y-78575000D01*
X117560000Y-78385750D01*
X117401250Y-78227000D01*
X116614500Y-78227000D01*
X116360500Y-78227000D01*
X116340500Y-78227000D01*
X116340500Y-77973000D01*
X116360500Y-77973000D01*
X116360500Y-77148750D01*
X116614500Y-77148750D01*
X116614500Y-77973000D01*
X117401250Y-77973000D01*
X117560000Y-77814250D01*
X117563072Y-77625000D01*
X117550812Y-77500518D01*
X117514502Y-77380820D01*
X117455537Y-77270506D01*
X117376185Y-77173815D01*
X117279494Y-77094463D01*
X117169180Y-77035498D01*
X117049482Y-76999188D01*
X116925000Y-76986928D01*
X116773250Y-76990000D01*
X116614500Y-77148750D01*
X116360500Y-77148750D01*
X116201750Y-76990000D01*
X116050000Y-76986928D01*
X115925518Y-76999188D01*
X115805820Y-77035498D01*
X115695506Y-77094463D01*
X115672500Y-77113343D01*
X115672500Y-76349822D01*
X115676176Y-76312499D01*
X115672500Y-76275176D01*
X115672500Y-76275167D01*
X115661503Y-76163514D01*
X115618046Y-76020253D01*
X115547474Y-75888224D01*
X115452501Y-75772499D01*
X115423503Y-75748701D01*
X113863804Y-74189003D01*
X113840001Y-74159999D01*
X113724276Y-74065026D01*
X113592247Y-73994454D01*
X113448986Y-73950997D01*
X113337333Y-73940000D01*
X113337322Y-73940000D01*
X113300000Y-73936324D01*
X113262678Y-73940000D01*
X110037325Y-73940000D01*
X110000000Y-73936324D01*
X109962675Y-73940000D01*
X109962667Y-73940000D01*
X109851014Y-73950997D01*
X109707753Y-73994454D01*
X109575724Y-74065026D01*
X109459999Y-74159999D01*
X109436201Y-74188997D01*
X108237366Y-75387832D01*
X108225812Y-75270518D01*
X108189502Y-75150820D01*
X108130537Y-75040506D01*
X108051185Y-74943815D01*
X107954494Y-74864463D01*
X107844180Y-74805498D01*
X107724482Y-74769188D01*
X107600000Y-74756928D01*
X106910750Y-74760000D01*
X106752000Y-74918750D01*
X106752000Y-75568000D01*
X106772000Y-75568000D01*
X106772000Y-75822000D01*
X106752000Y-75822000D01*
X106752000Y-75842000D01*
X106498000Y-75842000D01*
X106498000Y-75822000D01*
X105173750Y-75822000D01*
X105015000Y-75980750D01*
X105011928Y-75995000D01*
X105024188Y-76119482D01*
X105050130Y-76205000D01*
X104938711Y-76205000D01*
X104894774Y-76161063D01*
X104725256Y-76047795D01*
X104536898Y-75969774D01*
X104336939Y-75930000D01*
X104133061Y-75930000D01*
X103933102Y-75969774D01*
X103744744Y-76047795D01*
X103575226Y-76161063D01*
X103431063Y-76305226D01*
X103317795Y-76474744D01*
X103239774Y-76663102D01*
X103200000Y-76863061D01*
X103200000Y-77066939D01*
X103239774Y-77266898D01*
X103317795Y-77455256D01*
X103431063Y-77624774D01*
X103575226Y-77768937D01*
X103744744Y-77882205D01*
X103933102Y-77960226D01*
X104133061Y-78000000D01*
X104336939Y-78000000D01*
X104466205Y-77974288D01*
X104465026Y-77975724D01*
X104411333Y-78076176D01*
X104394454Y-78107754D01*
X104350997Y-78251015D01*
X104340000Y-78362668D01*
X104340000Y-78362678D01*
X104336324Y-78400000D01*
X104340000Y-78437323D01*
X104340001Y-80662668D01*
X104336324Y-80700000D01*
X104350998Y-80848985D01*
X104394454Y-80992246D01*
X104465026Y-81124276D01*
X104476719Y-81138523D01*
X104385750Y-81140000D01*
X104227000Y-81298750D01*
X104227000Y-82085500D01*
X105051250Y-82085500D01*
X105210000Y-81926750D01*
X105210832Y-81885634D01*
X108940000Y-85614803D01*
X108940001Y-87240000D01*
X105216383Y-87240000D01*
X105138405Y-87094114D01*
X105091943Y-87037500D01*
X105138405Y-86980886D01*
X105220472Y-86827350D01*
X105271008Y-86660754D01*
X105288072Y-86487500D01*
X105288072Y-85662500D01*
X105271008Y-85489246D01*
X105220472Y-85322650D01*
X105138405Y-85169114D01*
X105027962Y-85034538D01*
X104893386Y-84924095D01*
X104760000Y-84852798D01*
X104760000Y-84757303D01*
X104832275Y-84718671D01*
X104962115Y-84612115D01*
X105068671Y-84482275D01*
X105147850Y-84334142D01*
X105196608Y-84173408D01*
X105213072Y-84006250D01*
X105213072Y-83568750D01*
X105196608Y-83401592D01*
X105147850Y-83240858D01*
X105068671Y-83092725D01*
X105050900Y-83071070D01*
X105105537Y-83004494D01*
X105164502Y-82894180D01*
X105200812Y-82774482D01*
X105213072Y-82650000D01*
X105210000Y-82498250D01*
X105051250Y-82339500D01*
X104227000Y-82339500D01*
X104227000Y-82359500D01*
X103973000Y-82359500D01*
X103973000Y-82339500D01*
X103148750Y-82339500D01*
X102990000Y-82498250D01*
X102986928Y-82650000D01*
X102999188Y-82774482D01*
X103035498Y-82894180D01*
X103094463Y-83004494D01*
X103149100Y-83071070D01*
X103131329Y-83092725D01*
X103052150Y-83240858D01*
X103003392Y-83401592D01*
X102986928Y-83568750D01*
X102986928Y-84006250D01*
X103003392Y-84173408D01*
X103052150Y-84334142D01*
X103131329Y-84482275D01*
X103237885Y-84612115D01*
X103240001Y-84613851D01*
X103240001Y-84852798D01*
X103106614Y-84924095D01*
X102972038Y-85034538D01*
X102861595Y-85169114D01*
X102779528Y-85322650D01*
X102728992Y-85489246D01*
X102711928Y-85662500D01*
X102711928Y-86487500D01*
X102728992Y-86660754D01*
X102779528Y-86827350D01*
X102861595Y-86980886D01*
X102908057Y-87037500D01*
X102861595Y-87094114D01*
X102779528Y-87247650D01*
X102728992Y-87414246D01*
X102711928Y-87587500D01*
X102711928Y-88412500D01*
X102728992Y-88585754D01*
X102779528Y-88752350D01*
X102861595Y-88905886D01*
X102972038Y-89040462D01*
X103106614Y-89150905D01*
X103260150Y-89232972D01*
X103426746Y-89283508D01*
X103600000Y-89300572D01*
X104400000Y-89300572D01*
X104573254Y-89283508D01*
X104739850Y-89232972D01*
X104893386Y-89150905D01*
X105027962Y-89040462D01*
X105138405Y-88905886D01*
X105216383Y-88760000D01*
X108940001Y-88760000D01*
X108940000Y-91185198D01*
X108785199Y-91340000D01*
X105225735Y-91340000D01*
X105220472Y-91322650D01*
X105138405Y-91169114D01*
X105027962Y-91034538D01*
X104893386Y-90924095D01*
X104739850Y-90842028D01*
X104573254Y-90791492D01*
X104400000Y-90774428D01*
X103600000Y-90774428D01*
X103426746Y-90791492D01*
X103260150Y-90842028D01*
X103106614Y-90924095D01*
X102972038Y-91034538D01*
X102861595Y-91169114D01*
X102779528Y-91322650D01*
X102774622Y-91338823D01*
X102762675Y-91340000D01*
X102762667Y-91340000D01*
X102651014Y-91350997D01*
X102507753Y-91394454D01*
X102375724Y-91465026D01*
X102259999Y-91559999D01*
X102236196Y-91589003D01*
X102089003Y-91736196D01*
X102059999Y-91759999D01*
X102020809Y-91807753D01*
X101965026Y-91875724D01*
X101924782Y-91951015D01*
X101894454Y-92007754D01*
X101850997Y-92151015D01*
X101840000Y-92262668D01*
X101840000Y-92262678D01*
X101836324Y-92300000D01*
X101685000Y-92300000D01*
X101685000Y-81775000D01*
X102986928Y-81775000D01*
X102990000Y-81926750D01*
X103148750Y-82085500D01*
X103973000Y-82085500D01*
X103973000Y-81298750D01*
X103814250Y-81140000D01*
X103625000Y-81136928D01*
X103500518Y-81149188D01*
X103380820Y-81185498D01*
X103270506Y-81244463D01*
X103173815Y-81323815D01*
X103094463Y-81420506D01*
X103035498Y-81530820D01*
X102999188Y-81650518D01*
X102986928Y-81775000D01*
X101685000Y-81775000D01*
X101685000Y-75395000D01*
X105011928Y-75395000D01*
X105015000Y-75409250D01*
X105173750Y-75568000D01*
X106498000Y-75568000D01*
X106498000Y-74918750D01*
X106339250Y-74760000D01*
X105650000Y-74756928D01*
X105525518Y-74769188D01*
X105405820Y-74805498D01*
X105295506Y-74864463D01*
X105198815Y-74943815D01*
X105119463Y-75040506D01*
X105060498Y-75150820D01*
X105024188Y-75270518D01*
X105011928Y-75395000D01*
X101685000Y-75395000D01*
X101685000Y-75033505D01*
X101732312Y-74550984D01*
X101862714Y-74119070D01*
X102074524Y-73720715D01*
X102359675Y-73371086D01*
X102707303Y-73083503D01*
X103104177Y-72868914D01*
X103535161Y-72735502D01*
X104015654Y-72685000D01*
X116815000Y-72685000D01*
X116815001Y-73966343D01*
M02*
