G04 #@! TF.GenerationSoftware,KiCad,Pcbnew,(5.1.4-0-10_14)*
G04 #@! TF.CreationDate,2020-05-18T15:00:38+02:00*
G04 #@! TF.ProjectId,maskmeter,6d61736b-6d65-4746-9572-2e6b69636164,rev?*
G04 #@! TF.SameCoordinates,Original*
G04 #@! TF.FileFunction,Soldermask,Top*
G04 #@! TF.FilePolarity,Negative*
%FSLAX46Y46*%
G04 Gerber Fmt 4.6, Leading zero omitted, Abs format (unit mm)*
G04 Created by KiCad (PCBNEW (5.1.4-0-10_14)) date 2020-05-18 15:00:38*
%MOMM*%
%LPD*%
G04 APERTURE LIST*
%ADD10C,0.150000*%
%ADD11C,0.100000*%
G04 APERTURE END LIST*
D10*
X136569166Y-105627380D02*
X136235833Y-105151190D01*
X135997738Y-105627380D02*
X135997738Y-104627380D01*
X136378690Y-104627380D01*
X136473928Y-104675000D01*
X136521547Y-104722619D01*
X136569166Y-104817857D01*
X136569166Y-104960714D01*
X136521547Y-105055952D01*
X136473928Y-105103571D01*
X136378690Y-105151190D01*
X135997738Y-105151190D01*
X136997738Y-105627380D02*
X136997738Y-104960714D01*
X136997738Y-104627380D02*
X136950119Y-104675000D01*
X136997738Y-104722619D01*
X137045357Y-104675000D01*
X136997738Y-104627380D01*
X136997738Y-104722619D01*
X137902500Y-105579761D02*
X137807261Y-105627380D01*
X137616785Y-105627380D01*
X137521547Y-105579761D01*
X137473928Y-105532142D01*
X137426309Y-105436904D01*
X137426309Y-105151190D01*
X137473928Y-105055952D01*
X137521547Y-105008333D01*
X137616785Y-104960714D01*
X137807261Y-104960714D01*
X137902500Y-105008333D01*
X138331071Y-105627380D02*
X138331071Y-104627380D01*
X138426309Y-105246428D02*
X138712023Y-105627380D01*
X138712023Y-104960714D02*
X138331071Y-105341666D01*
X139140595Y-105627380D02*
X139140595Y-104627380D01*
X139521547Y-104627380D01*
X139616785Y-104675000D01*
X139664404Y-104722619D01*
X139712023Y-104817857D01*
X139712023Y-104960714D01*
X139664404Y-105055952D01*
X139616785Y-105103571D01*
X139521547Y-105151190D01*
X139140595Y-105151190D01*
X136283452Y-106372619D02*
X136331071Y-106325000D01*
X136426309Y-106277380D01*
X136664404Y-106277380D01*
X136759642Y-106325000D01*
X136807261Y-106372619D01*
X136854880Y-106467857D01*
X136854880Y-106563095D01*
X136807261Y-106705952D01*
X136235833Y-107277380D01*
X136854880Y-107277380D01*
X137473928Y-106277380D02*
X137569166Y-106277380D01*
X137664404Y-106325000D01*
X137712023Y-106372619D01*
X137759642Y-106467857D01*
X137807261Y-106658333D01*
X137807261Y-106896428D01*
X137759642Y-107086904D01*
X137712023Y-107182142D01*
X137664404Y-107229761D01*
X137569166Y-107277380D01*
X137473928Y-107277380D01*
X137378690Y-107229761D01*
X137331071Y-107182142D01*
X137283452Y-107086904D01*
X137235833Y-106896428D01*
X137235833Y-106658333D01*
X137283452Y-106467857D01*
X137331071Y-106372619D01*
X137378690Y-106325000D01*
X137473928Y-106277380D01*
X138188214Y-106372619D02*
X138235833Y-106325000D01*
X138331071Y-106277380D01*
X138569166Y-106277380D01*
X138664404Y-106325000D01*
X138712023Y-106372619D01*
X138759642Y-106467857D01*
X138759642Y-106563095D01*
X138712023Y-106705952D01*
X138140595Y-107277380D01*
X138759642Y-107277380D01*
X139378690Y-106277380D02*
X139473928Y-106277380D01*
X139569166Y-106325000D01*
X139616785Y-106372619D01*
X139664404Y-106467857D01*
X139712023Y-106658333D01*
X139712023Y-106896428D01*
X139664404Y-107086904D01*
X139616785Y-107182142D01*
X139569166Y-107229761D01*
X139473928Y-107277380D01*
X139378690Y-107277380D01*
X139283452Y-107229761D01*
X139235833Y-107182142D01*
X139188214Y-107086904D01*
X139140595Y-106896428D01*
X139140595Y-106658333D01*
X139188214Y-106467857D01*
X139235833Y-106372619D01*
X139283452Y-106325000D01*
X139378690Y-106277380D01*
X103002380Y-106664404D02*
X102002380Y-106664404D01*
X102716666Y-106331071D01*
X102002380Y-105997738D01*
X103002380Y-105997738D01*
X103002380Y-105092976D02*
X102478571Y-105092976D01*
X102383333Y-105140595D01*
X102335714Y-105235833D01*
X102335714Y-105426309D01*
X102383333Y-105521547D01*
X102954761Y-105092976D02*
X103002380Y-105188214D01*
X103002380Y-105426309D01*
X102954761Y-105521547D01*
X102859523Y-105569166D01*
X102764285Y-105569166D01*
X102669047Y-105521547D01*
X102621428Y-105426309D01*
X102621428Y-105188214D01*
X102573809Y-105092976D01*
X102954761Y-104664404D02*
X103002380Y-104569166D01*
X103002380Y-104378690D01*
X102954761Y-104283452D01*
X102859523Y-104235833D01*
X102811904Y-104235833D01*
X102716666Y-104283452D01*
X102669047Y-104378690D01*
X102669047Y-104521547D01*
X102621428Y-104616785D01*
X102526190Y-104664404D01*
X102478571Y-104664404D01*
X102383333Y-104616785D01*
X102335714Y-104521547D01*
X102335714Y-104378690D01*
X102383333Y-104283452D01*
X103002380Y-103807261D02*
X102002380Y-103807261D01*
X102621428Y-103712023D02*
X103002380Y-103426309D01*
X102335714Y-103426309D02*
X102716666Y-103807261D01*
X104652380Y-106664404D02*
X103652380Y-106664404D01*
X104366666Y-106331071D01*
X103652380Y-105997738D01*
X104652380Y-105997738D01*
X104652380Y-105378690D02*
X104604761Y-105473928D01*
X104557142Y-105521547D01*
X104461904Y-105569166D01*
X104176190Y-105569166D01*
X104080952Y-105521547D01*
X104033333Y-105473928D01*
X103985714Y-105378690D01*
X103985714Y-105235833D01*
X104033333Y-105140595D01*
X104080952Y-105092976D01*
X104176190Y-105045357D01*
X104461904Y-105045357D01*
X104557142Y-105092976D01*
X104604761Y-105140595D01*
X104652380Y-105235833D01*
X104652380Y-105378690D01*
X104652380Y-104616785D02*
X103985714Y-104616785D01*
X103652380Y-104616785D02*
X103700000Y-104664404D01*
X103747619Y-104616785D01*
X103700000Y-104569166D01*
X103652380Y-104616785D01*
X103747619Y-104616785D01*
X104604761Y-104188214D02*
X104652380Y-104092976D01*
X104652380Y-103902500D01*
X104604761Y-103807261D01*
X104509523Y-103759642D01*
X104461904Y-103759642D01*
X104366666Y-103807261D01*
X104319047Y-103902500D01*
X104319047Y-104045357D01*
X104271428Y-104140595D01*
X104176190Y-104188214D01*
X104128571Y-104188214D01*
X104033333Y-104140595D01*
X103985714Y-104045357D01*
X103985714Y-103902500D01*
X104033333Y-103807261D01*
X103985714Y-103473928D02*
X103985714Y-103092976D01*
X103652380Y-103331071D02*
X104509523Y-103331071D01*
X104604761Y-103283452D01*
X104652380Y-103188214D01*
X104652380Y-103092976D01*
X103985714Y-102331071D02*
X104652380Y-102331071D01*
X103985714Y-102759642D02*
X104509523Y-102759642D01*
X104604761Y-102712023D01*
X104652380Y-102616785D01*
X104652380Y-102473928D01*
X104604761Y-102378690D01*
X104557142Y-102331071D01*
X104652380Y-101854880D02*
X103985714Y-101854880D01*
X104176190Y-101854880D02*
X104080952Y-101807261D01*
X104033333Y-101759642D01*
X103985714Y-101664404D01*
X103985714Y-101569166D01*
X104604761Y-100854880D02*
X104652380Y-100950119D01*
X104652380Y-101140595D01*
X104604761Y-101235833D01*
X104509523Y-101283452D01*
X104128571Y-101283452D01*
X104033333Y-101235833D01*
X103985714Y-101140595D01*
X103985714Y-100950119D01*
X104033333Y-100854880D01*
X104128571Y-100807261D01*
X104223809Y-100807261D01*
X104319047Y-101283452D01*
X106302380Y-106664404D02*
X105302380Y-106664404D01*
X106016666Y-106331071D01*
X105302380Y-105997738D01*
X106302380Y-105997738D01*
X106254761Y-105140595D02*
X106302380Y-105235833D01*
X106302380Y-105426309D01*
X106254761Y-105521547D01*
X106159523Y-105569166D01*
X105778571Y-105569166D01*
X105683333Y-105521547D01*
X105635714Y-105426309D01*
X105635714Y-105235833D01*
X105683333Y-105140595D01*
X105778571Y-105092976D01*
X105873809Y-105092976D01*
X105969047Y-105569166D01*
X105635714Y-104807261D02*
X105635714Y-104426309D01*
X105302380Y-104664404D02*
X106159523Y-104664404D01*
X106254761Y-104616785D01*
X106302380Y-104521547D01*
X106302380Y-104426309D01*
X106254761Y-103712023D02*
X106302380Y-103807261D01*
X106302380Y-103997738D01*
X106254761Y-104092976D01*
X106159523Y-104140595D01*
X105778571Y-104140595D01*
X105683333Y-104092976D01*
X105635714Y-103997738D01*
X105635714Y-103807261D01*
X105683333Y-103712023D01*
X105778571Y-103664404D01*
X105873809Y-103664404D01*
X105969047Y-104140595D01*
X106302380Y-103235833D02*
X105635714Y-103235833D01*
X105826190Y-103235833D02*
X105730952Y-103188214D01*
X105683333Y-103140595D01*
X105635714Y-103045357D01*
X105635714Y-102950119D01*
X106302380Y-101331071D02*
X106302380Y-101902500D01*
X106302380Y-101616785D02*
X105302380Y-101616785D01*
X105445238Y-101712023D01*
X105540476Y-101807261D01*
X105588095Y-101902500D01*
X106207142Y-100902500D02*
X106254761Y-100854880D01*
X106302380Y-100902500D01*
X106254761Y-100950119D01*
X106207142Y-100902500D01*
X106302380Y-100902500D01*
X105302380Y-100235833D02*
X105302380Y-100140595D01*
X105350000Y-100045357D01*
X105397619Y-99997738D01*
X105492857Y-99950119D01*
X105683333Y-99902500D01*
X105921428Y-99902500D01*
X106111904Y-99950119D01*
X106207142Y-99997738D01*
X106254761Y-100045357D01*
X106302380Y-100140595D01*
X106302380Y-100235833D01*
X106254761Y-100331071D01*
X106207142Y-100378690D01*
X106111904Y-100426309D01*
X105921428Y-100473928D01*
X105683333Y-100473928D01*
X105492857Y-100426309D01*
X105397619Y-100378690D01*
X105350000Y-100331071D01*
X105302380Y-100235833D01*
D11*
G36*
X131251000Y-106651000D02*
G01*
X126949000Y-106651000D01*
X126949000Y-103549000D01*
X131251000Y-103549000D01*
X131251000Y-106651000D01*
X131251000Y-106651000D01*
G37*
G36*
X108351000Y-102751000D02*
G01*
X106949000Y-102751000D01*
X106949000Y-99249000D01*
X108351000Y-99249000D01*
X108351000Y-102751000D01*
X108351000Y-102751000D01*
G37*
G36*
X117051000Y-102751000D02*
G01*
X115649000Y-102751000D01*
X115649000Y-99249000D01*
X117051000Y-99249000D01*
X117051000Y-102751000D01*
X117051000Y-102751000D01*
G37*
G36*
X104379591Y-97590585D02*
G01*
X104413569Y-97600893D01*
X104444890Y-97617634D01*
X104472339Y-97640161D01*
X104494866Y-97667610D01*
X104511607Y-97698931D01*
X104521915Y-97732909D01*
X104526000Y-97774390D01*
X104526000Y-98375610D01*
X104521915Y-98417091D01*
X104511607Y-98451069D01*
X104494866Y-98482390D01*
X104472339Y-98509839D01*
X104444890Y-98532366D01*
X104413569Y-98549107D01*
X104379591Y-98559415D01*
X104338110Y-98563500D01*
X103661890Y-98563500D01*
X103620409Y-98559415D01*
X103586431Y-98549107D01*
X103555110Y-98532366D01*
X103527661Y-98509839D01*
X103505134Y-98482390D01*
X103488393Y-98451069D01*
X103478085Y-98417091D01*
X103474000Y-98375610D01*
X103474000Y-97774390D01*
X103478085Y-97732909D01*
X103488393Y-97698931D01*
X103505134Y-97667610D01*
X103527661Y-97640161D01*
X103555110Y-97617634D01*
X103586431Y-97600893D01*
X103620409Y-97590585D01*
X103661890Y-97586500D01*
X104338110Y-97586500D01*
X104379591Y-97590585D01*
X104379591Y-97590585D01*
G37*
G36*
X104379591Y-96015585D02*
G01*
X104413569Y-96025893D01*
X104444890Y-96042634D01*
X104472339Y-96065161D01*
X104494866Y-96092610D01*
X104511607Y-96123931D01*
X104521915Y-96157909D01*
X104526000Y-96199390D01*
X104526000Y-96800610D01*
X104521915Y-96842091D01*
X104511607Y-96876069D01*
X104494866Y-96907390D01*
X104472339Y-96934839D01*
X104444890Y-96957366D01*
X104413569Y-96974107D01*
X104379591Y-96984415D01*
X104338110Y-96988500D01*
X103661890Y-96988500D01*
X103620409Y-96984415D01*
X103586431Y-96974107D01*
X103555110Y-96957366D01*
X103527661Y-96934839D01*
X103505134Y-96907390D01*
X103488393Y-96876069D01*
X103478085Y-96842091D01*
X103474000Y-96800610D01*
X103474000Y-96199390D01*
X103478085Y-96157909D01*
X103488393Y-96123931D01*
X103505134Y-96092610D01*
X103527661Y-96065161D01*
X103555110Y-96042634D01*
X103586431Y-96025893D01*
X103620409Y-96015585D01*
X103661890Y-96011500D01*
X104338110Y-96011500D01*
X104379591Y-96015585D01*
X104379591Y-96015585D01*
G37*
G36*
X104545781Y-93290795D02*
G01*
X104581816Y-93301727D01*
X104615024Y-93319477D01*
X104644134Y-93343366D01*
X104668023Y-93372476D01*
X104685773Y-93405684D01*
X104696705Y-93441719D01*
X104701000Y-93485331D01*
X104701000Y-94514669D01*
X104696705Y-94558281D01*
X104685773Y-94594316D01*
X104668023Y-94627524D01*
X104644134Y-94656634D01*
X104615024Y-94680523D01*
X104581816Y-94698273D01*
X104545781Y-94709205D01*
X104502169Y-94713500D01*
X103497831Y-94713500D01*
X103454219Y-94709205D01*
X103418184Y-94698273D01*
X103384976Y-94680523D01*
X103355866Y-94656634D01*
X103331977Y-94627524D01*
X103314227Y-94594316D01*
X103303295Y-94558281D01*
X103299000Y-94514669D01*
X103299000Y-93485331D01*
X103303295Y-93441719D01*
X103314227Y-93405684D01*
X103331977Y-93372476D01*
X103355866Y-93343366D01*
X103384976Y-93319477D01*
X103418184Y-93301727D01*
X103454219Y-93290795D01*
X103497831Y-93286500D01*
X104502169Y-93286500D01*
X104545781Y-93290795D01*
X104545781Y-93290795D01*
G37*
G36*
X115451000Y-94051000D02*
G01*
X114349000Y-94051000D01*
X114349000Y-92249000D01*
X115451000Y-92249000D01*
X115451000Y-94051000D01*
X115451000Y-94051000D01*
G37*
G36*
X111651000Y-94051000D02*
G01*
X110549000Y-94051000D01*
X110549000Y-92249000D01*
X111651000Y-92249000D01*
X111651000Y-94051000D01*
X111651000Y-94051000D01*
G37*
G36*
X104545781Y-91365795D02*
G01*
X104581816Y-91376727D01*
X104615024Y-91394477D01*
X104644134Y-91418366D01*
X104668023Y-91447476D01*
X104685773Y-91480684D01*
X104696705Y-91516719D01*
X104701000Y-91560331D01*
X104701000Y-92589669D01*
X104696705Y-92633281D01*
X104685773Y-92669316D01*
X104668023Y-92702524D01*
X104644134Y-92731634D01*
X104615024Y-92755523D01*
X104581816Y-92773273D01*
X104545781Y-92784205D01*
X104502169Y-92788500D01*
X103497831Y-92788500D01*
X103454219Y-92784205D01*
X103418184Y-92773273D01*
X103384976Y-92755523D01*
X103355866Y-92731634D01*
X103331977Y-92702524D01*
X103314227Y-92669316D01*
X103303295Y-92633281D01*
X103299000Y-92589669D01*
X103299000Y-91560331D01*
X103303295Y-91516719D01*
X103314227Y-91480684D01*
X103331977Y-91447476D01*
X103355866Y-91418366D01*
X103384976Y-91394477D01*
X103418184Y-91376727D01*
X103454219Y-91365795D01*
X103497831Y-91361500D01*
X104502169Y-91361500D01*
X104545781Y-91365795D01*
X104545781Y-91365795D01*
G37*
G36*
X104545781Y-87290795D02*
G01*
X104581816Y-87301727D01*
X104615024Y-87319477D01*
X104644134Y-87343366D01*
X104668023Y-87372476D01*
X104685773Y-87405684D01*
X104696705Y-87441719D01*
X104701000Y-87485331D01*
X104701000Y-88514669D01*
X104696705Y-88558281D01*
X104685773Y-88594316D01*
X104668023Y-88627524D01*
X104644134Y-88656634D01*
X104615024Y-88680523D01*
X104581816Y-88698273D01*
X104545781Y-88709205D01*
X104502169Y-88713500D01*
X103497831Y-88713500D01*
X103454219Y-88709205D01*
X103418184Y-88698273D01*
X103384976Y-88680523D01*
X103355866Y-88656634D01*
X103331977Y-88627524D01*
X103314227Y-88594316D01*
X103303295Y-88558281D01*
X103299000Y-88514669D01*
X103299000Y-87485331D01*
X103303295Y-87441719D01*
X103314227Y-87405684D01*
X103331977Y-87372476D01*
X103355866Y-87343366D01*
X103384976Y-87319477D01*
X103418184Y-87301727D01*
X103454219Y-87290795D01*
X103497831Y-87286500D01*
X104502169Y-87286500D01*
X104545781Y-87290795D01*
X104545781Y-87290795D01*
G37*
G36*
X115451000Y-87751000D02*
G01*
X114349000Y-87751000D01*
X114349000Y-85949000D01*
X115451000Y-85949000D01*
X115451000Y-87751000D01*
X115451000Y-87751000D01*
G37*
G36*
X111651000Y-87751000D02*
G01*
X110549000Y-87751000D01*
X110549000Y-85949000D01*
X111651000Y-85949000D01*
X111651000Y-87751000D01*
X111651000Y-87751000D01*
G37*
G36*
X104545781Y-85365795D02*
G01*
X104581816Y-85376727D01*
X104615024Y-85394477D01*
X104644134Y-85418366D01*
X104668023Y-85447476D01*
X104685773Y-85480684D01*
X104696705Y-85516719D01*
X104701000Y-85560331D01*
X104701000Y-86589669D01*
X104696705Y-86633281D01*
X104685773Y-86669316D01*
X104668023Y-86702524D01*
X104644134Y-86731634D01*
X104615024Y-86755523D01*
X104581816Y-86773273D01*
X104545781Y-86784205D01*
X104502169Y-86788500D01*
X103497831Y-86788500D01*
X103454219Y-86784205D01*
X103418184Y-86773273D01*
X103384976Y-86755523D01*
X103355866Y-86731634D01*
X103331977Y-86702524D01*
X103314227Y-86669316D01*
X103303295Y-86633281D01*
X103299000Y-86589669D01*
X103299000Y-85560331D01*
X103303295Y-85516719D01*
X103314227Y-85480684D01*
X103331977Y-85447476D01*
X103355866Y-85418366D01*
X103384976Y-85394477D01*
X103418184Y-85376727D01*
X103454219Y-85365795D01*
X103497831Y-85361500D01*
X104502169Y-85361500D01*
X104545781Y-85365795D01*
X104545781Y-85365795D01*
G37*
G36*
X104479591Y-83303085D02*
G01*
X104513569Y-83313393D01*
X104544890Y-83330134D01*
X104572339Y-83352661D01*
X104594866Y-83380110D01*
X104611607Y-83411431D01*
X104621915Y-83445409D01*
X104626000Y-83486890D01*
X104626000Y-84088110D01*
X104621915Y-84129591D01*
X104611607Y-84163569D01*
X104594866Y-84194890D01*
X104572339Y-84222339D01*
X104544890Y-84244866D01*
X104513569Y-84261607D01*
X104479591Y-84271915D01*
X104438110Y-84276000D01*
X103761890Y-84276000D01*
X103720409Y-84271915D01*
X103686431Y-84261607D01*
X103655110Y-84244866D01*
X103627661Y-84222339D01*
X103605134Y-84194890D01*
X103588393Y-84163569D01*
X103578085Y-84129591D01*
X103574000Y-84088110D01*
X103574000Y-83486890D01*
X103578085Y-83445409D01*
X103588393Y-83411431D01*
X103605134Y-83380110D01*
X103627661Y-83352661D01*
X103655110Y-83330134D01*
X103686431Y-83313393D01*
X103720409Y-83303085D01*
X103761890Y-83299000D01*
X104438110Y-83299000D01*
X104479591Y-83303085D01*
X104479591Y-83303085D01*
G37*
G36*
X104479591Y-81728085D02*
G01*
X104513569Y-81738393D01*
X104544890Y-81755134D01*
X104572339Y-81777661D01*
X104594866Y-81805110D01*
X104611607Y-81836431D01*
X104621915Y-81870409D01*
X104626000Y-81911890D01*
X104626000Y-82513110D01*
X104621915Y-82554591D01*
X104611607Y-82588569D01*
X104594866Y-82619890D01*
X104572339Y-82647339D01*
X104544890Y-82669866D01*
X104513569Y-82686607D01*
X104479591Y-82696915D01*
X104438110Y-82701000D01*
X103761890Y-82701000D01*
X103720409Y-82696915D01*
X103686431Y-82686607D01*
X103655110Y-82669866D01*
X103627661Y-82647339D01*
X103605134Y-82619890D01*
X103588393Y-82588569D01*
X103578085Y-82554591D01*
X103574000Y-82513110D01*
X103574000Y-81911890D01*
X103578085Y-81870409D01*
X103588393Y-81836431D01*
X103605134Y-81805110D01*
X103627661Y-81777661D01*
X103655110Y-81755134D01*
X103686431Y-81738393D01*
X103720409Y-81728085D01*
X103761890Y-81724000D01*
X104438110Y-81724000D01*
X104479591Y-81728085D01*
X104479591Y-81728085D01*
G37*
G36*
X110329591Y-80978085D02*
G01*
X110363569Y-80988393D01*
X110394890Y-81005134D01*
X110422339Y-81027661D01*
X110444866Y-81055110D01*
X110461607Y-81086431D01*
X110471915Y-81120409D01*
X110476000Y-81161890D01*
X110476000Y-81838110D01*
X110471915Y-81879591D01*
X110461607Y-81913569D01*
X110444866Y-81944890D01*
X110422339Y-81972339D01*
X110394890Y-81994866D01*
X110363569Y-82011607D01*
X110329591Y-82021915D01*
X110288110Y-82026000D01*
X109686890Y-82026000D01*
X109645409Y-82021915D01*
X109611431Y-82011607D01*
X109580110Y-81994866D01*
X109552661Y-81972339D01*
X109530134Y-81944890D01*
X109513393Y-81913569D01*
X109503085Y-81879591D01*
X109499000Y-81838110D01*
X109499000Y-81161890D01*
X109503085Y-81120409D01*
X109513393Y-81086431D01*
X109530134Y-81055110D01*
X109552661Y-81027661D01*
X109580110Y-81005134D01*
X109611431Y-80988393D01*
X109645409Y-80978085D01*
X109686890Y-80974000D01*
X110288110Y-80974000D01*
X110329591Y-80978085D01*
X110329591Y-80978085D01*
G37*
G36*
X108754591Y-80978085D02*
G01*
X108788569Y-80988393D01*
X108819890Y-81005134D01*
X108847339Y-81027661D01*
X108869866Y-81055110D01*
X108886607Y-81086431D01*
X108896915Y-81120409D01*
X108901000Y-81161890D01*
X108901000Y-81838110D01*
X108896915Y-81879591D01*
X108886607Y-81913569D01*
X108869866Y-81944890D01*
X108847339Y-81972339D01*
X108819890Y-81994866D01*
X108788569Y-82011607D01*
X108754591Y-82021915D01*
X108713110Y-82026000D01*
X108111890Y-82026000D01*
X108070409Y-82021915D01*
X108036431Y-82011607D01*
X108005110Y-81994866D01*
X107977661Y-81972339D01*
X107955134Y-81944890D01*
X107938393Y-81913569D01*
X107928085Y-81879591D01*
X107924000Y-81838110D01*
X107924000Y-81161890D01*
X107928085Y-81120409D01*
X107938393Y-81086431D01*
X107955134Y-81055110D01*
X107977661Y-81027661D01*
X108005110Y-81005134D01*
X108036431Y-80988393D01*
X108070409Y-80978085D01*
X108111890Y-80974000D01*
X108713110Y-80974000D01*
X108754591Y-80978085D01*
X108754591Y-80978085D01*
G37*
G36*
X115254591Y-79378085D02*
G01*
X115288569Y-79388393D01*
X115319890Y-79405134D01*
X115347339Y-79427661D01*
X115369866Y-79455110D01*
X115386607Y-79486431D01*
X115396915Y-79520409D01*
X115401000Y-79561890D01*
X115401000Y-80238110D01*
X115396915Y-80279591D01*
X115386607Y-80313569D01*
X115369866Y-80344890D01*
X115347339Y-80372339D01*
X115319890Y-80394866D01*
X115288569Y-80411607D01*
X115254591Y-80421915D01*
X115213110Y-80426000D01*
X114611890Y-80426000D01*
X114570409Y-80421915D01*
X114536431Y-80411607D01*
X114505110Y-80394866D01*
X114477661Y-80372339D01*
X114455134Y-80344890D01*
X114438393Y-80313569D01*
X114428085Y-80279591D01*
X114424000Y-80238110D01*
X114424000Y-79561890D01*
X114428085Y-79520409D01*
X114438393Y-79486431D01*
X114455134Y-79455110D01*
X114477661Y-79427661D01*
X114505110Y-79405134D01*
X114536431Y-79388393D01*
X114570409Y-79378085D01*
X114611890Y-79374000D01*
X115213110Y-79374000D01*
X115254591Y-79378085D01*
X115254591Y-79378085D01*
G37*
G36*
X116829591Y-79378085D02*
G01*
X116863569Y-79388393D01*
X116894890Y-79405134D01*
X116922339Y-79427661D01*
X116944866Y-79455110D01*
X116961607Y-79486431D01*
X116971915Y-79520409D01*
X116976000Y-79561890D01*
X116976000Y-80238110D01*
X116971915Y-80279591D01*
X116961607Y-80313569D01*
X116944866Y-80344890D01*
X116922339Y-80372339D01*
X116894890Y-80394866D01*
X116863569Y-80411607D01*
X116829591Y-80421915D01*
X116788110Y-80426000D01*
X116186890Y-80426000D01*
X116145409Y-80421915D01*
X116111431Y-80411607D01*
X116080110Y-80394866D01*
X116052661Y-80372339D01*
X116030134Y-80344890D01*
X116013393Y-80313569D01*
X116003085Y-80279591D01*
X115999000Y-80238110D01*
X115999000Y-79561890D01*
X116003085Y-79520409D01*
X116013393Y-79486431D01*
X116030134Y-79455110D01*
X116052661Y-79427661D01*
X116080110Y-79405134D01*
X116111431Y-79388393D01*
X116145409Y-79378085D01*
X116186890Y-79374000D01*
X116788110Y-79374000D01*
X116829591Y-79378085D01*
X116829591Y-79378085D01*
G37*
G36*
X112509928Y-79156764D02*
G01*
X112531009Y-79163160D01*
X112550445Y-79173548D01*
X112567476Y-79187524D01*
X112581452Y-79204555D01*
X112591840Y-79223991D01*
X112598236Y-79245072D01*
X112601000Y-79273140D01*
X112601000Y-79736860D01*
X112598236Y-79764928D01*
X112591840Y-79786009D01*
X112581452Y-79805445D01*
X112567476Y-79822476D01*
X112550445Y-79836452D01*
X112531009Y-79846840D01*
X112509928Y-79853236D01*
X112481860Y-79856000D01*
X110668140Y-79856000D01*
X110640072Y-79853236D01*
X110618991Y-79846840D01*
X110599555Y-79836452D01*
X110582524Y-79822476D01*
X110568548Y-79805445D01*
X110558160Y-79786009D01*
X110551764Y-79764928D01*
X110549000Y-79736860D01*
X110549000Y-79273140D01*
X110551764Y-79245072D01*
X110558160Y-79223991D01*
X110568548Y-79204555D01*
X110582524Y-79187524D01*
X110599555Y-79173548D01*
X110618991Y-79163160D01*
X110640072Y-79156764D01*
X110668140Y-79154000D01*
X112481860Y-79154000D01*
X112509928Y-79156764D01*
X112509928Y-79156764D01*
G37*
G36*
X107559928Y-79156764D02*
G01*
X107581009Y-79163160D01*
X107600445Y-79173548D01*
X107617476Y-79187524D01*
X107631452Y-79204555D01*
X107641840Y-79223991D01*
X107648236Y-79245072D01*
X107651000Y-79273140D01*
X107651000Y-79736860D01*
X107648236Y-79764928D01*
X107641840Y-79786009D01*
X107631452Y-79805445D01*
X107617476Y-79822476D01*
X107600445Y-79836452D01*
X107581009Y-79846840D01*
X107559928Y-79853236D01*
X107531860Y-79856000D01*
X105718140Y-79856000D01*
X105690072Y-79853236D01*
X105668991Y-79846840D01*
X105649555Y-79836452D01*
X105632524Y-79822476D01*
X105618548Y-79805445D01*
X105608160Y-79786009D01*
X105601764Y-79764928D01*
X105599000Y-79736860D01*
X105599000Y-79273140D01*
X105601764Y-79245072D01*
X105608160Y-79223991D01*
X105618548Y-79204555D01*
X105632524Y-79187524D01*
X105649555Y-79173548D01*
X105668991Y-79163160D01*
X105690072Y-79156764D01*
X105718140Y-79154000D01*
X107531860Y-79154000D01*
X107559928Y-79156764D01*
X107559928Y-79156764D01*
G37*
G36*
X116829591Y-77578085D02*
G01*
X116863569Y-77588393D01*
X116894890Y-77605134D01*
X116922339Y-77627661D01*
X116944866Y-77655110D01*
X116961607Y-77686431D01*
X116971915Y-77720409D01*
X116976000Y-77761890D01*
X116976000Y-78438110D01*
X116971915Y-78479591D01*
X116961607Y-78513569D01*
X116944866Y-78544890D01*
X116922339Y-78572339D01*
X116894890Y-78594866D01*
X116863569Y-78611607D01*
X116829591Y-78621915D01*
X116788110Y-78626000D01*
X116186890Y-78626000D01*
X116145409Y-78621915D01*
X116111431Y-78611607D01*
X116080110Y-78594866D01*
X116052661Y-78572339D01*
X116030134Y-78544890D01*
X116013393Y-78513569D01*
X116003085Y-78479591D01*
X115999000Y-78438110D01*
X115999000Y-77761890D01*
X116003085Y-77720409D01*
X116013393Y-77686431D01*
X116030134Y-77655110D01*
X116052661Y-77627661D01*
X116080110Y-77605134D01*
X116111431Y-77588393D01*
X116145409Y-77578085D01*
X116186890Y-77574000D01*
X116788110Y-77574000D01*
X116829591Y-77578085D01*
X116829591Y-77578085D01*
G37*
G36*
X115254591Y-77578085D02*
G01*
X115288569Y-77588393D01*
X115319890Y-77605134D01*
X115347339Y-77627661D01*
X115369866Y-77655110D01*
X115386607Y-77686431D01*
X115396915Y-77720409D01*
X115401000Y-77761890D01*
X115401000Y-78438110D01*
X115396915Y-78479591D01*
X115386607Y-78513569D01*
X115369866Y-78544890D01*
X115347339Y-78572339D01*
X115319890Y-78594866D01*
X115288569Y-78611607D01*
X115254591Y-78621915D01*
X115213110Y-78626000D01*
X114611890Y-78626000D01*
X114570409Y-78621915D01*
X114536431Y-78611607D01*
X114505110Y-78594866D01*
X114477661Y-78572339D01*
X114455134Y-78544890D01*
X114438393Y-78513569D01*
X114428085Y-78479591D01*
X114424000Y-78438110D01*
X114424000Y-77761890D01*
X114428085Y-77720409D01*
X114438393Y-77686431D01*
X114455134Y-77655110D01*
X114477661Y-77627661D01*
X114505110Y-77605134D01*
X114536431Y-77588393D01*
X114570409Y-77578085D01*
X114611890Y-77574000D01*
X115213110Y-77574000D01*
X115254591Y-77578085D01*
X115254591Y-77578085D01*
G37*
G36*
X112509928Y-77886764D02*
G01*
X112531009Y-77893160D01*
X112550445Y-77903548D01*
X112567476Y-77917524D01*
X112581452Y-77934555D01*
X112591840Y-77953991D01*
X112598236Y-77975072D01*
X112601000Y-78003140D01*
X112601000Y-78466860D01*
X112598236Y-78494928D01*
X112591840Y-78516009D01*
X112581452Y-78535445D01*
X112567476Y-78552476D01*
X112550445Y-78566452D01*
X112531009Y-78576840D01*
X112509928Y-78583236D01*
X112481860Y-78586000D01*
X110668140Y-78586000D01*
X110640072Y-78583236D01*
X110618991Y-78576840D01*
X110599555Y-78566452D01*
X110582524Y-78552476D01*
X110568548Y-78535445D01*
X110558160Y-78516009D01*
X110551764Y-78494928D01*
X110549000Y-78466860D01*
X110549000Y-78003140D01*
X110551764Y-77975072D01*
X110558160Y-77953991D01*
X110568548Y-77934555D01*
X110582524Y-77917524D01*
X110599555Y-77903548D01*
X110618991Y-77893160D01*
X110640072Y-77886764D01*
X110668140Y-77884000D01*
X112481860Y-77884000D01*
X112509928Y-77886764D01*
X112509928Y-77886764D01*
G37*
G36*
X107559928Y-77886764D02*
G01*
X107581009Y-77893160D01*
X107600445Y-77903548D01*
X107617476Y-77917524D01*
X107631452Y-77934555D01*
X107641840Y-77953991D01*
X107648236Y-77975072D01*
X107651000Y-78003140D01*
X107651000Y-78466860D01*
X107648236Y-78494928D01*
X107641840Y-78516009D01*
X107631452Y-78535445D01*
X107617476Y-78552476D01*
X107600445Y-78566452D01*
X107581009Y-78576840D01*
X107559928Y-78583236D01*
X107531860Y-78586000D01*
X105718140Y-78586000D01*
X105690072Y-78583236D01*
X105668991Y-78576840D01*
X105649555Y-78566452D01*
X105632524Y-78552476D01*
X105618548Y-78535445D01*
X105608160Y-78516009D01*
X105601764Y-78494928D01*
X105599000Y-78466860D01*
X105599000Y-78003140D01*
X105601764Y-77975072D01*
X105608160Y-77953991D01*
X105618548Y-77934555D01*
X105632524Y-77917524D01*
X105649555Y-77903548D01*
X105668991Y-77893160D01*
X105690072Y-77886764D01*
X105718140Y-77884000D01*
X107531860Y-77884000D01*
X107559928Y-77886764D01*
X107559928Y-77886764D01*
G37*
G36*
X131251000Y-77651000D02*
G01*
X126949000Y-77651000D01*
X126949000Y-74549000D01*
X131251000Y-74549000D01*
X131251000Y-77651000D01*
X131251000Y-77651000D01*
G37*
G36*
X112509928Y-76616764D02*
G01*
X112531009Y-76623160D01*
X112550445Y-76633548D01*
X112567476Y-76647524D01*
X112581452Y-76664555D01*
X112591840Y-76683991D01*
X112598236Y-76705072D01*
X112601000Y-76733140D01*
X112601000Y-77196860D01*
X112598236Y-77224928D01*
X112591840Y-77246009D01*
X112581452Y-77265445D01*
X112567476Y-77282476D01*
X112550445Y-77296452D01*
X112531009Y-77306840D01*
X112509928Y-77313236D01*
X112481860Y-77316000D01*
X110668140Y-77316000D01*
X110640072Y-77313236D01*
X110618991Y-77306840D01*
X110599555Y-77296452D01*
X110582524Y-77282476D01*
X110568548Y-77265445D01*
X110558160Y-77246009D01*
X110551764Y-77224928D01*
X110549000Y-77196860D01*
X110549000Y-76733140D01*
X110551764Y-76705072D01*
X110558160Y-76683991D01*
X110568548Y-76664555D01*
X110582524Y-76647524D01*
X110599555Y-76633548D01*
X110618991Y-76623160D01*
X110640072Y-76616764D01*
X110668140Y-76614000D01*
X112481860Y-76614000D01*
X112509928Y-76616764D01*
X112509928Y-76616764D01*
G37*
G36*
X107559928Y-76616764D02*
G01*
X107581009Y-76623160D01*
X107600445Y-76633548D01*
X107617476Y-76647524D01*
X107631452Y-76664555D01*
X107641840Y-76683991D01*
X107648236Y-76705072D01*
X107651000Y-76733140D01*
X107651000Y-77196860D01*
X107648236Y-77224928D01*
X107641840Y-77246009D01*
X107631452Y-77265445D01*
X107617476Y-77282476D01*
X107600445Y-77296452D01*
X107581009Y-77306840D01*
X107559928Y-77313236D01*
X107531860Y-77316000D01*
X105718140Y-77316000D01*
X105690072Y-77313236D01*
X105668991Y-77306840D01*
X105649555Y-77296452D01*
X105632524Y-77282476D01*
X105618548Y-77265445D01*
X105608160Y-77246009D01*
X105601764Y-77224928D01*
X105599000Y-77196860D01*
X105599000Y-76733140D01*
X105601764Y-76705072D01*
X105608160Y-76683991D01*
X105618548Y-76664555D01*
X105632524Y-76647524D01*
X105649555Y-76633548D01*
X105668991Y-76623160D01*
X105690072Y-76616764D01*
X105718140Y-76614000D01*
X107531860Y-76614000D01*
X107559928Y-76616764D01*
X107559928Y-76616764D01*
G37*
G36*
X107559928Y-75346764D02*
G01*
X107581009Y-75353160D01*
X107600445Y-75363548D01*
X107617476Y-75377524D01*
X107631452Y-75394555D01*
X107641840Y-75413991D01*
X107648236Y-75435072D01*
X107651000Y-75463140D01*
X107651000Y-75926860D01*
X107648236Y-75954928D01*
X107641840Y-75976009D01*
X107631452Y-75995445D01*
X107617476Y-76012476D01*
X107600445Y-76026452D01*
X107581009Y-76036840D01*
X107559928Y-76043236D01*
X107531860Y-76046000D01*
X105718140Y-76046000D01*
X105690072Y-76043236D01*
X105668991Y-76036840D01*
X105649555Y-76026452D01*
X105632524Y-76012476D01*
X105618548Y-75995445D01*
X105608160Y-75976009D01*
X105601764Y-75954928D01*
X105599000Y-75926860D01*
X105599000Y-75463140D01*
X105601764Y-75435072D01*
X105608160Y-75413991D01*
X105618548Y-75394555D01*
X105632524Y-75377524D01*
X105649555Y-75363548D01*
X105668991Y-75353160D01*
X105690072Y-75346764D01*
X105718140Y-75344000D01*
X107531860Y-75344000D01*
X107559928Y-75346764D01*
X107559928Y-75346764D01*
G37*
G36*
X112509928Y-75346764D02*
G01*
X112531009Y-75353160D01*
X112550445Y-75363548D01*
X112567476Y-75377524D01*
X112581452Y-75394555D01*
X112591840Y-75413991D01*
X112598236Y-75435072D01*
X112601000Y-75463140D01*
X112601000Y-75926860D01*
X112598236Y-75954928D01*
X112591840Y-75976009D01*
X112581452Y-75995445D01*
X112567476Y-76012476D01*
X112550445Y-76026452D01*
X112531009Y-76036840D01*
X112509928Y-76043236D01*
X112481860Y-76046000D01*
X110668140Y-76046000D01*
X110640072Y-76043236D01*
X110618991Y-76036840D01*
X110599555Y-76026452D01*
X110582524Y-76012476D01*
X110568548Y-75995445D01*
X110558160Y-75976009D01*
X110551764Y-75954928D01*
X110549000Y-75926860D01*
X110549000Y-75463140D01*
X110551764Y-75435072D01*
X110558160Y-75413991D01*
X110568548Y-75394555D01*
X110582524Y-75377524D01*
X110599555Y-75363548D01*
X110618991Y-75353160D01*
X110640072Y-75346764D01*
X110668140Y-75344000D01*
X112481860Y-75344000D01*
X112509928Y-75346764D01*
X112509928Y-75346764D01*
G37*
M02*
